<?xml version="1.0" encoding="utf-8"?>
<!-- Generator: Adobe Illustrator 19.0.0, SVG Export Plug-In . SVG Version: 6.00 Build 0)  -->
<svg version="1.1" id="Guides" xmlns="http://www.w3.org/2000/svg" xmlns:xlink="http://www.w3.org/1999/xlink" x="0px" y="0px"
	 width="960px" height="1120.01px" viewBox="-445.496 772.489 960 1120.01" enable-background="new -445.496 772.489 960 1120.01"
	 xml:space="preserve">
<rect x="-445.496" y="772.489" opacity="0.25" fill="#EB212E" enable-background="new    " width="1" height="1"/>
<rect x="513.504" y="1891.499" opacity="0.25" fill="#C6D6D4" enable-background="new    " width="1" height="1"/>
<g>
	<path fill="#DE7854" d="M-205.497,1148.5c-13.256,0-24,10.745-24,24s10.744,24,24,24c13.254,0,24-10.745,24-24
		S-192.243,1148.5-205.497,1148.5z M-205.497,1194.5c-12.15,0-22-9.85-22-22s9.85-22,22-22s22,9.85,22,22
		S-193.347,1194.5-205.497,1194.5z"/>
	<g>
		<path fill="#DE7854" d="M-210.497,1172.5c0,0.553,0.447,1,1,1h8c0.553,0,1-0.447,1-1s-0.447-1-1-1h-8
			C-210.05,1171.5-210.497,1171.947-210.497,1172.5C-210.497,1172.5-210.497,1171.947-210.497,1172.5z"/>
	</g>
	<g>
		<path fill="#DE7854" d="M-207.497,1176.5h-5c-2.206,0-4-1.795-4-4s1.794-4,4-4h5c0,0,0-2-2-2s-3,0-3,0c-3.314,0-6,2.687-6,6
			s2.686,6,6,6c0,0,1,0,3,0C-207.497,1178.499-207.497,1176.5-207.497,1176.5z"/>
		<path fill="#DE7854" d="M-198.497,1166.5c0,0-1,0-3,0c-2-0.001-2,2-2,2h5c2.206,0,4,1.795,4,4s-1.794,4-4,4h-5c0,0,0,2,2,2
			c2-0.001,3,0,3,0c3.314,0,6-2.687,6-6S-195.183,1166.5-198.497,1166.5z"/>
	</g>
</g>
<g>
	<path fill="#A4B2B0" d="M274.504,1148.5c-13.256,0-24,10.745-24,24s10.744,24,24,24c13.254,0,24-10.745,24-24
		S287.758,1148.5,274.504,1148.5z M274.504,1194.5c-12.15,0-22-9.85-22-22s9.85-22,22-22c12.15,0,22,9.85,22,22
		S286.654,1194.5,274.504,1194.5z"/>
	<path fill="#A4B2B0" d="M283.504,1164.5c0,0.553-0.449,1-1,1h-9c-0.553,0-1-0.447-1-1l0,0c0-0.553,0.447-1,1-1h9
		C283.055,1163.5,283.504,1163.947,283.504,1164.5L283.504,1164.5z"/>
	<path fill="#A4B2B0" d="M283.211,1163.793c0.391,0.391,0.391,1.023,0,1.414l-9.9,9.899c-0.391,0.391-1.023,0.391-1.414,0l0,0
		c-0.391-0.391-0.391-1.023,0-1.414l9.9-9.899C282.188,1163.402,282.82,1163.402,283.211,1163.793L283.211,1163.793z"/>
	<path fill="#A4B2B0" d="M282.504,1163.5c0.551,0,1,0.447,1,1v9c0,0.553-0.449,1-1,1l0,0c-0.553,0-1-0.447-1-1v-9
		C281.504,1163.947,281.951,1163.5,282.504,1163.5L282.504,1163.5z"/>
	<path fill="#A4B2B0" d="M280.603,1175.399c0-2-1.998-2-1.998-2v4.001c0,0.551-0.449,1-1,1h-8.002c-0.551,0-1-0.449-1-1v-8.002
		c0-0.551,0.449-1,1-1h4c0,0,0-1.999-2-1.999s-2-0.001-2-0.001c-1.656,0-3,1.344-3,3v8.002c0,1.656,1.344,3,3,3h8.002
		c1.656,0,3-1.344,3-3C280.605,1177.4,280.603,1177.399,280.603,1175.399z"/>
</g>
<g>
	<path fill="#DE7854" d="M-364.911,1014.914c-0.392-0.391-0.392-1.023,0-1.414h0.414c0.391-0.391,0.609-0.391,1,0l7.705,7.293
		c0.393,0.391,0.393,1.023,0,1.414l0,0c-0.391,0.391-1.021,0.391-1.414,0L-364.911,1014.914z"/>
	<path fill="#DE7854" d="M-365.497,988.5c-13.256,0-24,10.745-24,24s10.744,24,24,24c13.254,0,24-10.745,24-24
		S-352.243,988.5-365.497,988.5z M-365.497,1034.5c-12.15,0-22-9.85-22-22s9.85-22,22-22c12.15,0,22,9.85,22,22
		S-353.346,1034.5-365.497,1034.5z"/>
	<path fill="#DE7854" d="M-368.497,1002.5c-3.867,0-7,3.134-7,7s3.133,7,7,7c3.865,0,7-3.134,7-7S-364.631,1002.5-368.497,1002.5z
		 M-368.497,1014.5c-2.762,0-5-2.238-5-5c0-2.762,2.238-5,5-5c2.762,0,5,2.238,5,5C-363.497,1012.262-365.735,1014.5-368.497,1014.5
		z"/>
</g>
<g>
	<path fill="#FFFFFF" d="M-204.911,1014.914c-0.393-0.391-0.393-1.023,0-1.414h0.414c0.391-0.391,0.609-0.391,1,0l7.705,7.293
		c0.393,0.391,0.393,1.023,0,1.414l0,0c-0.391,0.391-1.021,0.391-1.414,0L-204.911,1014.914z"/>
	<path fill="#FFFFFF" d="M-205.497,988.5c-13.256,0-24,10.745-24,24s10.744,24,24,24c13.254,0,24-10.745,24-24
		S-192.243,988.5-205.497,988.5z M-205.497,1034.5c-12.15,0-22-9.85-22-22s9.85-22,22-22s22,9.85,22,22
		S-193.347,1034.5-205.497,1034.5z"/>
	<path fill="#FFFFFF" d="M-208.497,1002.5c-3.867,0-7,3.134-7,7s3.133,7,7,7c3.865,0,7-3.134,7-7S-204.632,1002.5-208.497,1002.5z
		 M-208.497,1014.5c-2.762,0-5-2.238-5-5c0-2.762,2.238-5,5-5s5,2.238,5,5C-203.497,1012.262-205.735,1014.5-208.497,1014.5z"/>
</g>
<g>
	<path fill="#5AADAA" d="M111.31,1342.995c-0.391,0.392-1.023,0.392-1.414,0l0,0c-0.391-0.391-0.391-1.023,0-1.414l9.898-9.899
		c0.391-0.391,1.023-0.391,1.414,0l0,0c0.393,0.391,0.393,1.024,0,1.414L111.31,1342.995z"/>
	<path fill="#5AADAA" d="M109.896,1323.196c-0.391-0.391-0.391-1.023,0-1.414l0,0c0.391-0.391,1.023-0.391,1.414,0l9.898,9.9
		c0.393,0.391,0.393,1.024,0,1.414l0,0c-0.391,0.391-1.023,0.391-1.414,0L109.896,1323.196z"/>
	<path fill="#5AADAA" d="M114.504,1308.489c-13.256,0-24,10.745-24,24s10.744,24,24,24c13.254,0,24-10.745,24-24
		S127.758,1308.489,114.504,1308.489z M114.504,1354.489c-12.15,0-22-9.85-22-22s9.85-22,22-22c12.15,0,22,9.85,22,22
		S126.654,1354.489,114.504,1354.489z"/>
</g>
<g>
	<path fill="#5AADAA" d="M-42.305,1321.983c0.391-0.392,1.023-0.392,1.414,0l0,0c0.391,0.391,0.391,1.023,0,1.414l-9.898,9.898
		c-0.391,0.391-1.023,0.391-1.414,0l0,0c-0.391-0.391-0.391-1.023,0-1.414L-42.305,1321.983z"/>
	<path fill="#5AADAA" d="M-40.891,1341.782c0.391,0.391,0.393,1.023,0,1.414l0,0c-0.391,0.391-1.023,0.391-1.414,0l-9.898-9.9
		c-0.391-0.391-0.391-1.023,0-1.414l0,0c0.391-0.391,1.023-0.391,1.414,0L-40.891,1341.782z"/>
	<path fill="#5AADAA" d="M-45.496,1356.489c13.254,0,24-10.745,24-24s-10.746-24-24-24c-13.256,0-24,10.745-24,24
		S-58.752,1356.489-45.496,1356.489z M-45.496,1310.489c12.15,0,22,9.85,22,22s-9.85,22-22,22c-12.15,0-22-9.85-22-22
		S-57.647,1310.489-45.496,1310.489z"/>
</g>
<g>
	<path fill="#5AADAA" d="M-209.74,1503.106c-0.391,0.392-1.023,0.392-1.414,0l0,0c-0.391-0.391-0.391-1.023,0-1.414l9.898-9.898
		c0.391-0.391,1.023-0.391,1.414,0l0,0c0.393,0.391,0.393,1.023,0,1.414L-209.74,1503.106z"/>
	<path fill="#5AADAA" d="M-211.154,1483.308c-0.391-0.391-0.391-1.023,0-1.414l0,0c0.391-0.391,1.023-0.391,1.414,0l9.898,9.9
		c0.393,0.391,0.393,1.023,0,1.414l0,0c-0.391,0.391-1.023,0.391-1.414,0L-211.154,1483.308z"/>
</g>
<g>
	<path fill="#5AADAA" d="M-361.255,1481.894c0.391-0.391,1.023-0.391,1.414,0l0,0c0.391,0.391,0.391,1.023,0,1.414l-9.898,9.899
		c-0.391,0.391-1.023,0.391-1.414,0l0,0c-0.391-0.391-0.391-1.024,0-1.414L-361.255,1481.894z"/>
	<path fill="#5AADAA" d="M-359.841,1501.692c0.391,0.391,0.393,1.023,0,1.414l0,0c-0.391,0.391-1.023,0.391-1.414,0l-9.898-9.9
		c-0.391-0.391-0.391-1.024,0-1.414l0,0c0.391-0.391,1.023-0.391,1.414,0L-359.841,1501.692z"/>
</g>
<g>
	<g>
		<path fill="#5AADAA" d="M-365.497,1308.489c-13.254,0-24,10.746-24,24c0,13.256,10.746,24,24,24c13.256,0,24-10.744,24-24
			C-341.497,1319.235-352.241,1308.489-365.497,1308.489z M-365.497,1354.489c-12.15,0-22-9.85-22-22s9.85-22,22-22
			c12.15,0,22,9.85,22,22S-353.346,1354.489-365.497,1354.489z"/>
	</g>
	<g>
		<path fill="#5AADAA" d="M-365.497,1356.489c13.256,0,24-10.744,24-24c0-13.254-10.744-24-24-24c-13.254,0-24,10.746-24,24
			C-389.497,1345.745-378.75,1356.489-365.497,1356.489z M-365.497,1310.489c12.15,0,22,9.85,22,22s-9.85,22-22,22
			c-12.15,0-22-9.85-22-22S-377.647,1310.489-365.497,1310.489z"/>
	</g>
	<g>
		<path fill="#5AADAA" d="M-367.588,1343.194c-0.391,0.393-1.023,0.393-1.414,0l0,0c-0.391-0.391-0.391-1.023,0-1.414l15.799-15.799
			c0.391-0.391,1.023-0.391,1.414,0l0,0c0.391,0.391,0.391,1.023,0,1.414L-367.588,1343.194z"/>
		<path fill="#5AADAA" d="M-365.497,1308.489c-13.254,0-24,10.746-24,24c0,13.256,10.746,24,24,24c13.256,0,24-10.744,24-24
			C-341.497,1319.235-352.241,1308.489-365.497,1308.489z M-365.497,1354.489c-12.15,0-22-9.85-22-22s9.85-22,22-22
			c12.15,0,22,9.85,22,22S-353.346,1354.489-365.497,1354.489z"/>
	</g>
	<g>
		<path fill="#5AADAA" d="M-367.688,1341.782c0.391,0.391,0.391,1.023,0,1.414l0,0c-0.391,0.391-1.023,0.391-1.414,0l-9.898-9.9
			c-0.393-0.391-0.393-1.023,0-1.414l0,0c0.391-0.391,1.023-0.391,1.414,0L-367.688,1341.782z"/>
		<path fill="#5AADAA" d="M-365.497,1356.489c13.256,0,24-10.744,24-24c0-13.254-10.744-24-24-24c-13.254,0-24,10.746-24,24
			C-389.497,1345.745-378.75,1356.489-365.497,1356.489z M-365.497,1310.489c12.15,0,22,9.85,22,22s-9.85,22-22,22
			c-12.15,0-22-9.85-22-22S-377.647,1310.489-365.497,1310.489z"/>
	</g>
</g>
<g>
	<path fill="#DE7854" d="M434.504,988.5c-13.254,0-24,10.745-24,24s10.746,24,24,24c13.256,0,24-10.745,24-24
		S447.76,988.5,434.504,988.5z M434.504,1034.5c-12.15,0-22-9.85-22-22s9.85-22,22-22c12.15,0,22,9.85,22,22
		S446.654,1034.5,434.504,1034.5z"/>
	<path fill="#DE7854" stroke="#231F20" stroke-width="2" stroke-miterlimit="10" d="M422.504,1008.5"/>
	<path fill="#DE7854" d="M434.504,1003.151c0.295,0,0.492,0.079,0.555,0.122l8.672,5.781c0.361,0.24,0.773,1.011,0.773,1.445v9h-20
		v-9c0-0.435,0.412-1.205,0.773-1.445l8.672-5.782C434.014,1003.231,434.209,1003.151,434.504,1003.151 M434.504,1001.151
		c-0.604,0-1.207,0.152-1.664,0.458l-8.672,5.781c-0.914,0.609-1.664,2.009-1.664,3.109v9c0,1.1,0.9,2,2,2h20c1.1,0,2-0.9,2-2v-9
		c0-1.101-0.748-2.5-1.664-3.109l-8.672-5.781C435.711,1001.304,435.107,1001.151,434.504,1001.151L434.504,1001.151z"/>
	<path fill="#DE7854" d="M434.504,1016.5c-0.152,0-0.307-0.035-0.447-0.105l-8-4c-0.494-0.248-0.693-0.848-0.447-1.342
		c0.248-0.494,0.848-0.695,1.342-0.447l7.553,3.775l7.553-3.775c0.496-0.248,1.096-0.047,1.342,0.447
		c0.248,0.494,0.047,1.094-0.447,1.342l-8,4C434.81,1016.465,434.658,1016.5,434.504,1016.5z"/>
</g>
<g>
	<path fill="#A4B2B0" d="M114.504,988.5c-13.254,0-24,10.745-24,24s10.746,24,24,24c13.256,0,24-10.745,24-24
		S127.76,988.5,114.504,988.5z M114.504,1034.5c-12.15,0-22-9.85-22-22s9.85-22,22-22c12.15,0,22,9.85,22,22
		S126.654,1034.5,114.504,1034.5z"/>
	<path fill="#A4B2B0" stroke="#231F20" stroke-width="2" stroke-miterlimit="10" d="M102.504,1008.5"/>
	<path fill="#A4B2B0" d="M114.504,1003.151c0.295,0,0.492,0.079,0.555,0.122l8.672,5.781c0.361,0.24,0.773,1.011,0.773,1.445v9h-20
		v-9c0-0.435,0.412-1.205,0.773-1.445l8.672-5.782C114.014,1003.231,114.209,1003.151,114.504,1003.151 M114.504,1001.151
		c-0.604,0-1.207,0.152-1.664,0.458l-8.672,5.781c-0.914,0.609-1.664,2.009-1.664,3.109v9c0,1.1,0.9,2,2,2h20c1.1,0,2-0.9,2-2v-9
		c0-1.101-0.748-2.5-1.664-3.109l-8.672-5.781C115.711,1001.304,115.107,1001.151,114.504,1001.151L114.504,1001.151z"/>
	<path fill="#A4B2B0" d="M114.504,1016.5c-0.152,0-0.307-0.035-0.447-0.105l-8-4c-0.494-0.248-0.693-0.848-0.447-1.342
		c0.248-0.494,0.848-0.695,1.342-0.447l7.553,3.775l7.553-3.775c0.496-0.248,1.096-0.047,1.342,0.447
		c0.248,0.494,0.047,1.094-0.447,1.342l-8,4C114.81,1016.465,114.658,1016.5,114.504,1016.5z"/>
</g>
<g>
	<path fill="#A4B2B0" d="M274.504,1308.489c-13.256,0-24,10.746-24,24c0,13.256,10.744,24,24,24c13.254,0,24-10.744,24-24
		C298.504,1319.235,287.758,1308.489,274.504,1308.489z M274.504,1354.489c-12.15,0-22-9.85-22-22s9.85-22,22-22
		c12.15,0,22,9.85,22,22S286.654,1354.489,274.504,1354.489z"/>
	<path fill="#A4B2B0" d="M278.908,1328.306l-0.232-0.104c-0.393-0.176-0.814-0.311-1.256-0.402c-0.439-0.09-0.953-0.137-1.529-0.137
		c-1.08,0-2.049,0.193-2.881,0.578c-0.83,0.383-1.533,0.883-2.09,1.488c-0.557,0.605-0.982,1.293-1.266,2.047
		c-0.283,0.75-0.426,1.508-0.426,2.25c0,0.508,0.065,0.99,0.193,1.434c0.131,0.451,0.334,0.852,0.605,1.186
		c0.273,0.34,0.619,0.607,1.023,0.795c0.406,0.189,0.887,0.285,1.428,0.285c0.695,0,1.355-0.158,1.963-0.471
		c0.459-0.236,0.895-0.59,1.299-1.057c0.16,0.43,0.404,0.771,0.731,1.021c0.461,0.352,1.057,0.531,1.769,0.531
		c0.746,0,1.451-0.172,2.096-0.51c0.639-0.334,1.201-0.803,1.67-1.391c0.467-0.584,0.838-1.281,1.101-2.074
		c0.262-0.789,0.397-1.66,0.397-2.588c0-0.916-0.115-1.779-0.344-2.564c-0.227-0.787-0.551-1.51-0.959-2.152
		c-0.41-0.643-0.906-1.219-1.475-1.717c-0.566-0.492-1.195-0.912-1.871-1.248c-0.672-0.334-1.395-0.59-2.148-0.762
		c-1.631-0.371-3.416-0.342-4.986,0.111c-0.848,0.244-1.648,0.59-2.385,1.031c-0.736,0.439-1.412,0.979-2.01,1.598
		c-0.6,0.621-1.119,1.312-1.545,2.06c-0.428,0.746-0.764,1.562-0.998,2.426c-0.234,0.863-0.354,1.771-0.354,2.703
		c0,1.617,0.27,3.086,0.803,4.365c0.535,1.283,1.281,2.385,2.221,3.273c0.939,0.887,2.061,1.574,3.334,2.043
		c1.27,0.469,2.658,0.707,4.129,0.707c1.463,0,2.795-0.178,3.955-0.525c1.162-0.35,2.213-0.838,3.125-1.451l0.197-0.133l-0.4-1.057
		c-0.176-0.422-0.492-0.484-0.664-0.484c-0.156,0-0.316,0.051-0.492,0.154c-0.682,0.41-1.506,0.754-2.445,1.02
		c-0.941,0.266-2.043,0.402-3.275,0.402c-1.152,0-2.242-0.18-3.244-0.533c-0.992-0.352-1.869-0.881-2.608-1.574
		c-0.736-0.691-1.326-1.564-1.752-2.59c-0.43-1.029-0.647-2.246-0.647-3.617c0-1.162,0.203-2.252,0.604-3.236
		c0.398-0.982,0.955-1.848,1.65-2.566c0.693-0.719,1.52-1.289,2.453-1.697c1.789-0.777,4.002-0.771,5.768-0.195
		c0.836,0.273,1.568,0.689,2.182,1.238c0.609,0.547,1.098,1.24,1.449,2.064c0.354,0.824,0.533,1.803,0.533,2.906
		c0,0.693-0.08,1.334-0.234,1.902c-0.152,0.561-0.363,1.047-0.623,1.445c-0.254,0.387-0.551,0.689-0.879,0.898
		c-0.473,0.301-1.018,0.359-1.475,0.25c-0.125-0.031-0.23-0.086-0.324-0.166c-0.092-0.08-0.166-0.195-0.223-0.344
		c-0.063-0.16-0.094-0.375-0.094-0.637c0-0.381,0.078-0.879,0.228-1.475L278.908,1328.306z M272.916,1335.651
		c-0.447,0-0.77-0.141-0.986-0.426c-0.232-0.309-0.352-0.732-0.352-1.262c0-0.535,0.102-1.066,0.299-1.58
		c0.199-0.514,0.477-0.977,0.826-1.373c0.348-0.395,0.77-0.717,1.254-0.961c0.477-0.24,1.01-0.361,1.584-0.361
		c0.242,0,0.475,0.016,0.691,0.047l-0.869,3.377c-0.135,0.514-0.299,0.943-0.488,1.277c-0.188,0.326-0.391,0.586-0.609,0.77
		c-0.215,0.182-0.436,0.311-0.658,0.381C273.375,1335.612,273.143,1335.651,272.916,1335.651z"/>
</g>
<g>
	<path fill="#A4B2B0" d="M434.504,1148.5c-13.256,0-24,10.745-24,24s10.744,24,24,24c13.254,0,24-10.745,24-24
		S447.758,1148.5,434.504,1148.5z M434.504,1194.5c-12.15,0-22-9.85-22-22s9.85-22,22-22c12.15,0,22,9.85,22,22
		S446.654,1194.5,434.504,1194.5z"/>
	<g>
		<path fill="#A4B2B0" d="M434.502,1161.252c0.131,0,0.227,0.04,0.256,0.064l8.928,7.439c0.389,0.324,0.816,1.237,0.816,1.744v10
			h-4.998v-6c0-2.206-1.795-4-4-4h-2c-2.205,0-4,1.794-4,4v6h-5.002v-10c0-0.507,0.428-1.42,0.816-1.744l8.928-7.439
			C434.277,1161.292,434.373,1161.252,434.502,1161.252 M434.502,1159.252c-0.557,0-1.113,0.176-1.535,0.528l-8.928,7.439
			c-0.846,0.704-1.537,2.181-1.537,3.28v10c0,1.1,0.9,2,2,2h5.002c1.1,0,2-0.9,2-2v-6c0-1.1,0.9-2,2-2h2c1.1,0,2,0.9,2,2v6
			c0,1.1,0.9,2,2,2h4.998c1.1,0,2-0.9,2-2v-10c0-1.1-0.691-2.576-1.535-3.28l-8.928-7.439
			C435.617,1159.428,435.059,1159.252,434.502,1159.252L434.502,1159.252z"/>
	</g>
	<path fill="#A4B2B0" d="M430.502,1163.5v-1.005c-0.002-1.097-0.898-1.992-1.994-1.995h-2.01c-1.098,0.003-1.994,0.901-1.994,2v5
		l0,0l2-1.333v-3.667h2v2.334L430.502,1163.5z"/>
</g>
<g>
	<g>
		<path fill="#A4B2B0" d="M-45.496,1836.5c13.256,0,24-10.745,24-24s-10.744-24-24-24c-13.254,0-24,10.745-24,24
			S-58.75,1836.5-45.496,1836.5z M-45.496,1790.5c12.15,0,22,9.85,22,22s-9.85,22-22,22c-12.15,0-22-9.85-22-22
			S-57.647,1790.5-45.496,1790.5z"/>
	</g>
	<g>
		<path fill="#A4B2B0" d="M-45.199,1798.484c-6.074,0-11,4.924-11,11c0,8,10,18,11,18s11-10,11-18
			C-34.199,1803.408-39.123,1798.484-45.199,1798.484z M-45.199,1814.484c-2.762,0-5-2.239-5-5c0-2.762,2.238-5,5-5s5,2.238,5,5
			C-40.199,1812.245-42.438,1814.484-45.199,1814.484z"/>
	</g>
</g>
<g>
	<path fill="#A4B2B0" d="M434.504,1308.489c-13.254,0-24,10.745-24,24s10.746,24,24,24c13.256,0,24-10.745,24-24
		S447.76,1308.489,434.504,1308.489z M434.504,1354.489c-12.15,0-22-9.85-22-22s9.85-22,22-22c12.15,0,22,9.85,22,22
		S446.654,1354.489,434.504,1354.489z"/>
	<path fill="#A4B2B0" d="M444.504,1326.5h-1.023h-3.605h-10.742h-3.605h-1.023c-1.1,0-2,0.873-2,1.974v2.016v6.984v2.016
		c0,1.1,0.9,2.011,2,2.011h1.023h3.605h10.742h3.605h1.023c1.1,0,2-0.911,2-2.011v-2.016v-6.984v-2.016
		C446.504,1327.373,445.603,1326.5,444.504,1326.5z M442.875,1339.5h-16.742h-1.629v-2.026v-6.984v-1.989h1.629h16.742h1.629v1.989
		v6.984v2.026H442.875z"/>
	<path fill="#A4B2B0" d="M437.504,1332.5c0,0.549-0.449,1-1,1h-8c-0.549,0-1-0.451-1-1l0,0c0-0.551,0.451-1,1-1h8
		C437.055,1331.5,437.504,1331.949,437.504,1332.5L437.504,1332.5z"/>
	<path fill="#A4B2B0" d="M434.504,1336.5c0,0.549-0.449,1-1,1h-5c-0.549,0-1-0.451-1-1l0,0c0-0.551,0.451-1,1-1h5
		C434.055,1335.5,434.504,1335.949,434.504,1336.5L434.504,1336.5z"/>
	<path fill="#A4B2B0" d="M442.504,1333.474c0,0.549-0.449,1.026-1,1.026h-1c-0.549,0-1-0.478-1-1.026v-2
		c0-0.551,0.451-0.974,1-0.974h1c0.551,0,1,0.423,1,0.974V1333.474z"/>
</g>
<g>
	<rect x="-366.496" y="1808.5" fill="#A4B2B0" width="2" height="4"/>
	
		<rect x="-368.398" y="1809.965" transform="matrix(0.3086 -0.9512 0.9512 0.3086 -1977.5479 903.3301)" fill="#A4B2B0" width="2" height="4.001"/>
	
		<rect x="-367.671" y="1812.201" transform="matrix(-0.8091 -0.5876 0.5876 -0.8091 -1729.3986 3066.6973)" fill="#A4B2B0" width="2.001" height="4"/>
	
		<rect x="-365.321" y="1812.202" transform="matrix(-0.8091 0.5876 -0.5876 -0.8091 406.9285 3496.2329)" fill="#A4B2B0" width="2.001" height="3.999"/>
	
		<rect x="-364.594" y="1809.965" transform="matrix(0.3086 0.9512 -0.9512 0.3086 1472.1382 1598.6445)" fill="#A4B2B0" width="2" height="4.001"/>
</g>
<g>
	<path fill="#5AADAA" d="M-365.497,1148.5c-13.254,0-24,10.746-24,24c0,13.256,10.746,24,24,24c13.256,0,24-10.744,24-24
		C-341.497,1159.246-352.241,1148.5-365.497,1148.5z M-365.497,1194.5c-12.15,0-22-9.85-22-22s9.85-22,22-22c12.15,0,22,9.85,22,22
		S-353.346,1194.5-365.497,1194.5z"/>
	<path fill="#5AADAA" d="M-359.497,1181.85c-3.441,0-6.24-2.799-6.24-6.24c-0.002-0.061-0.152-8.9,8.203-12.379
		c0.416-0.174,0.898-0.061,1.193,0.287c0.293,0.346,0.328,0.84,0.088,1.223c-0.801,1.283-1.385,3.17-1.777,4.807
		c2.756,0.658,4.773,3.121,4.773,6.062C-353.256,1179.051-356.055,1181.85-359.497,1181.85z M-359.375,1166.676
		c-4.375,3.41-4.283,8.84-4.281,8.904c0,2.324,1.865,4.189,4.16,4.189c2.295,0,4.16-1.865,4.16-4.16c0-2.24-1.756-4.062-3.994-4.15
		c-0.307-0.014-0.59-0.158-0.779-0.398c-0.188-0.242-0.262-0.553-0.199-0.852C-360.092,1169.162-359.786,1167.902-359.375,1166.676z
		"/>
	<path fill="#5AADAA" d="M-373.497,1181.85c-3.439,0-6.24-2.799-6.24-6.24c-0.002-0.061-0.152-8.9,8.203-12.379
		c0.418-0.174,0.9-0.061,1.193,0.287c0.293,0.346,0.328,0.84,0.088,1.223c-0.801,1.283-1.385,3.17-1.777,4.807
		c2.758,0.658,4.773,3.121,4.773,6.062C-367.256,1179.051-370.055,1181.85-373.497,1181.85z M-373.375,1166.676
		c-4.375,3.41-4.283,8.84-4.281,8.904c0,2.324,1.867,4.189,4.16,4.189c2.295,0,4.16-1.865,4.16-4.16c0-2.24-1.754-4.062-3.994-4.15
		c-0.305-0.014-0.59-0.158-0.779-0.398c-0.188-0.242-0.26-0.553-0.199-0.852C-374.09,1169.162-373.786,1167.902-373.375,1166.676z"
		/>
</g>
<g>
	<g>
		<g>
			<path fill="#5AADAA" d="M-194.89,1321.981c-0.391-0.391-1.023-0.391-1.414,0l-9.092,9.094l-9.293-9.293
				c-0.391-0.391-1.023-0.391-1.414,0c-0.393,0.391-0.391,1.023,0,1.414l9.191,9.191l-9.191,9.193c-0.391,0.391-0.391,1.023,0,1.414
				c0.391,0.391,1.023,0.391,1.414,0l9.092-9.094l9.293,9.293c0.391,0.393,1.023,0.393,1.414,0c0.391-0.391,0.391-1.023,0-1.414
				l-9.191-9.191l9.191-9.193C-194.499,1323.005-194.499,1322.372-194.89,1321.981z M-205.497,1308.489c-13.254,0-24,10.744-24,24
				c0,13.254,10.746,24,24,24c13.256,0,24-10.746,24-24C-181.497,1319.233-192.241,1308.489-205.497,1308.489z M-205.497,1354.489
				c-12.15,0-22-9.85-22-22s9.85-22,22-22s22,9.85,22,22S-193.347,1354.489-205.497,1354.489z"/>
		</g>
	</g>
</g>
<g>
	<path fill="#A4B2B0" d="M114.504,1148.5c-13.256,0-24,10.745-24,24s10.744,24,24,24c13.254,0,24-10.745,24-24
		S127.758,1148.5,114.504,1148.5z M114.504,1194.5c-12.15,0-22-9.85-22-22s9.85-22,22-22c12.15,0,22,9.85,22,22
		S126.654,1194.5,114.504,1194.5z"/>
	<g>
		<g>
			<path fill="#A4B2B0" d="M109.666,1177.167c0.641,0,1.162,0.52,1.162,1.158c0,0.645-0.51,1.149-1.162,1.149
				c-0.641,0-1.162-0.516-1.162-1.149C108.504,1177.687,109.025,1177.167,109.666,1177.167 M109.666,1175.167
				c-1.746,0-3.162,1.422-3.162,3.158c0,1.743,1.416,3.149,3.162,3.149c1.752,0,3.162-1.406,3.162-3.149
				C112.828,1176.589,111.418,1175.167,109.666,1175.167L109.666,1175.167z"/>
			<path fill="#A4B2B0" d="M119.711,1182.5c-0.553,0-1-0.447-1-1c0-6.73-5.477-12.205-12.207-12.205c-0.553,0-1-0.447-1-1
				c0-0.553,0.447-1,1-1c7.834,0,14.207,6.373,14.207,14.205C120.711,1182.053,120.262,1182.5,119.711,1182.5z"/>
			<path fill="#A4B2B0" d="M126.502,1182.5c-0.553,0-1-0.447-1-1c0-10.477-8.52-19-18.99-19c-0.553,0-1-0.447-1-1s0.447-1,1-1
				c11.574,0,20.99,9.42,20.99,21C127.502,1182.053,127.053,1182.5,126.502,1182.5z"/>
		</g>
	</g>
</g>
<g>
	<g>
		<g>
			<g>
				<path fill="#A4B2B0" d="M-45.332,1183.501c0.641,0,1.162,0.52,1.162,1.158c0,0.633-0.521,1.148-1.162,1.148
					c-0.642,0-1.164-0.516-1.164-1.148C-46.496,1184.021-45.974,1183.501-45.332,1183.501 M-45.332,1181.501
					c-1.746,0-3.164,1.422-3.164,3.158c0,1.742,1.418,3.148,3.164,3.148c1.751,0,3.162-1.406,3.162-3.148
					C-42.17,1182.923-43.581,1181.501-45.332,1181.501L-45.332,1181.501z"/>
			</g>
		</g>
	</g>
	<path fill="#A4B2B0" d="M-45.496,1148.501c-13.254,0-24,10.744-24,24c0,13.254,10.746,23.998,24,23.998
		c13.256,0,24-10.744,24-23.998C-21.496,1159.245-32.24,1148.501-45.496,1148.501z M-45.496,1194.499c-12.15,0-22-9.848-22-21.998
		s9.85-22,22-22c12.15,0,22,9.85,22,22S-33.346,1194.499-45.496,1194.499z"/>
	<path fill="#A4B2B0" d="M-37.496,1165.489c0-3.859-3.14-7-7-7c-3.859,0-7,3.141-7,7c0,0.802,0.135,1.588,0.4,2.337
		c0.186,0.52,0.755,0.792,1.277,0.608c0.521-0.186,0.793-0.756,0.608-1.277c-0.188-0.533-0.285-1.095-0.285-1.668
		c0-2.757,2.244-5,5-5c2.758,0,5,2.243,5,5c0,0.759-0.453,1.719-0.859,2.482c-1.176,1.748-2.299,2.312-3.291,2.809
		c-0.57,0.285-1.107,0.554-1.557,1.002c-1.256,1.256-1.293,3.459-1.293,3.707v4c0,0.552,0.448,1,1,1c0.553,0,1-0.448,1-1v-3.998
		c0.003-0.414,0.138-1.725,0.707-2.295c0.219-0.219,0.58-0.398,1.037-0.627c1.101-0.551,2.607-1.305,4.088-3.525
		c0.008-0.012,0.009-0.025,0.016-0.037c0.011-0.018,0.025-0.029,0.035-0.048C-38.061,1167.923-37.496,1167.009-37.496,1165.489z"/>
</g>
<g>
	<path fill="#DE7854" d="M274.504,988.5c-13.254,0-24,10.745-24,24s10.746,24,24,24c13.256,0,24-10.745,24-24
		S287.76,988.5,274.504,988.5z M286.504,1019.5c0,1.1-0.9,2-2,2h-20c-1.1,0-2-0.9-2-2v-9c0-1.101,0.75-2.5,1.664-3.109l8.672-5.781
		c0.457-0.306,1.061-0.458,1.664-0.458c0.603,0,1.207,0.152,1.664,0.458l8.672,5.781c0.916,0.609,1.664,2.009,1.664,3.109V1019.5z"
		/>
	<path fill="#DE7854" d="M283.73,1009.055l-8.672-5.781c-0.062-0.043-0.26-0.122-0.555-0.122c-0.295,0-0.49,0.079-0.555,0.121
		l-8.672,5.782c-0.361,0.24-0.773,1.011-0.773,1.445v9h20v-9C284.504,1010.065,284.092,1009.295,283.73,1009.055z M282.951,1012.395
		l-8,4c-0.141,0.07-0.293,0.105-0.447,0.105c-0.152,0-0.307-0.035-0.447-0.105l-8-4c-0.494-0.248-0.693-0.848-0.447-1.342
		c0.248-0.494,0.848-0.695,1.342-0.447l7.553,3.775l7.553-3.775c0.496-0.248,1.096-0.047,1.342,0.447
		C283.646,1011.547,283.445,1012.147,282.951,1012.395z"/>
</g>
<g>
	<path fill="#A4B2B0" d="M-45.496,828.489c-13.254,0-24,10.745-24,24c0,13.255,10.746,24,24,24c13.256,0,24-10.745,24-24
		C-21.496,839.234-32.24,828.489-45.496,828.489z M-45.496,874.489c-12.15,0-22-9.85-22-22c0-12.15,9.85-22,22-22
		c12.15,0,22,9.85,22,22C-23.496,864.64-33.346,874.489-45.496,874.489z"/>
	<g>
		<path fill="#A4B2B0" d="M-40.516,842.489v3.447h-1.723c-1.293,0-1.377,0.482-1.377,1.379l-0.004,1.727h3.123l-0.363,3.447h-2.76
			v10h-4.135v-10h-2.07v-3.447h2.07v-2.07c0-2.811,1.166-4.482,4.48-4.482H-40.516 M-40.516,840.489h-2.758
			c-4.18,0-6.48,2.302-6.48,6.482v0.07h-0.07c-1.105,0-2,0.897-2,2v3.447c0,1.104,0.895,2,2,2h0.07v8c0,1.104,0.894,2,2,2h4.135
			c1.103,0,2-0.896,2-2v-8h0.76c1.024,0,1.883-0.773,1.99-1.791l0.363-3.446c0.059-0.563-0.123-1.126-0.504-1.548
			c-0.072-0.081-0.152-0.156-0.236-0.223c0.445-0.367,0.73-0.924,0.73-1.545v-3.447C-38.516,841.384-39.412,840.489-40.516,840.489
			L-40.516,840.489z"/>
	</g>
</g>
<path fill="#A4B2B0" d="M274.504,830.489c12.131,0,22,9.869,22,22c0,12.131-9.869,22-22,22c-12.131,0-22-9.869-22-22
	C252.504,840.358,262.373,830.489,274.504,830.489 M273.408,847.202c-1.932-0.527-3.676-1.649-4.965-3.229
	c-0.381-0.468-0.951-0.736-1.549-0.736c-0.055,0-0.107,0.002-0.162,0.007c-0.656,0.053-1.244,0.425-1.572,0.995
	c-0.537,0.934-0.82,1.993-0.82,3.062c0,0.631,0.096,1.247,0.279,1.831c-0.086,0.136-0.156,0.283-0.209,0.44
	c-0.108,0.325-0.108,0.596-0.108,0.685c0,1.483,0.541,2.866,1.449,3.939c-0.02,0.255,0.008,0.514,0.09,0.764
	c0.234,0.737,0.602,1.405,1.07,1.981c-0.143,0.01-0.285,0.015-0.43,0.015c-0.238,0-0.49-0.016-0.748-0.045
	c-0.078-0.01-0.154-0.014-0.232-0.014c-0.836,0-1.596,0.524-1.881,1.327c-0.315,0.877,0.02,1.854,0.803,2.357
	c2.203,1.413,4.752,2.16,7.371,2.16c8.381,0,13.459-6.666,13.666-13.255c0.645-0.576,1.217-1.233,1.705-1.962
	c0.494-0.74,0.441-1.72-0.133-2.401c-0.031-0.037-0.062-0.072-0.096-0.105c0.078-0.677-0.193-1.357-0.74-1.793
	c-0.361-0.289-0.803-0.436-1.246-0.436c-0.35,0-0.701,0.092-1.016,0.277c-0.355,0.209-0.723,0.381-1.1,0.515
	c-1.014-0.702-2.232-1.091-3.482-1.091C276.465,842.489,274.039,844.504,273.408,847.202 M274.504,828.489
	c-13.254,0-24,10.745-24,24c0,13.255,10.746,24,24,24c13.256,0,24-10.745,24-24C298.504,839.234,287.76,828.489,274.504,828.489
	L274.504,828.489z M275.353,849.526c-0.07-0.303-0.105-0.617-0.105-0.934c0-2.27,1.838-4.104,4.105-4.104
	c1.18,0,2.246,0.498,2.99,1.293c0.938-0.182,1.812-0.525,2.608-0.994c-0.305,0.957-0.957,1.762-1.805,2.269
	c0.832-0.1,1.621-0.318,2.357-0.646c-0.551,0.822-1.246,1.547-2.047,2.125c0.01,0.176,0.012,0.354,0.012,0.531
	c0,5.422-4.129,11.674-11.674,11.674c-2.32,0-4.477-0.68-6.291-1.844c0.318,0.037,0.648,0.059,0.978,0.059
	c1.926,0,3.695-0.656,5.096-1.758c-1.797-0.033-3.311-1.219-3.832-2.848c0.248,0.047,0.506,0.072,0.773,0.072
	c0.373,0,0.734-0.049,1.078-0.145c-1.877-0.377-3.295-2.033-3.295-4.021c0-0.018,0-0.035,0.006-0.053
	c0.553,0.307,1.184,0.492,1.859,0.512c-1.104-0.734-1.828-1.992-1.828-3.414c0-0.752,0.205-1.457,0.555-2.065
	C268.92,847.722,271.943,849.354,275.353,849.526L275.353,849.526z"/>
<path fill="#DE7854" d="M114.504,828.489c-13.254,0-24,10.745-24,24c0,13.255,10.746,24,24,24c13.256,0,24-10.745,24-24
	C138.504,839.234,127.76,828.489,114.504,828.489z M119.141,852.489h-2.76v10h-4.135v-10h-2.07v-3.447h2.07v-2.07
	c0-2.811,1.166-4.482,4.48-4.482h2.758v3.447h-1.723c-1.293,0-1.377,0.482-1.377,1.379l-0.004,1.727h3.123L119.141,852.489z"/>
<path fill="#DE7854" d="M434.504,828.489c-13.254,0-24,10.745-24,24c0,13.255,10.746,24,24,24c13.256,0,24-10.745,24-24
	C458.504,839.234,447.76,828.489,434.504,828.489z M443.457,848.536c0.01,0.176,0.012,0.354,0.012,0.531
	c0,5.422-4.129,11.674-11.674,11.674c-2.32,0-4.477-0.68-6.291-1.844c0.318,0.037,0.648,0.059,0.978,0.059
	c1.926,0,3.695-0.656,5.096-1.758c-1.797-0.033-3.311-1.219-3.832-2.848c0.248,0.047,0.506,0.072,0.773,0.072
	c0.373,0,0.734-0.049,1.078-0.145c-1.877-0.377-3.295-2.033-3.295-4.021c0-0.018,0-0.035,0.006-0.053
	c0.553,0.307,1.184,0.492,1.859,0.512c-1.104-0.734-1.828-1.992-1.828-3.414c0-0.752,0.205-1.457,0.555-2.065
	c2.025,2.484,5.049,4.117,8.459,4.289c-0.07-0.303-0.105-0.617-0.105-0.934c0-2.27,1.838-4.104,4.105-4.104
	c1.18,0,2.246,0.498,2.99,1.293c0.938-0.182,1.812-0.525,2.607-0.994c-0.305,0.957-0.957,1.762-1.805,2.269
	c0.832-0.1,1.621-0.318,2.357-0.646C444.953,847.233,444.258,847.958,443.457,848.536z"/>
<path fill="#A4B2B0" d="M-365.497,840.489c-6.629,0-12,5.371-12,12c0,6.627,5.371,12,12,12c6.627,0,12-5.373,12-12
	C-353.497,845.86-358.87,840.489-365.497,840.489z M-357.604,850.196l-7.086,6.998c-0.391,0.393-1.023,0.393-1.414,0l-6.912-6.998
	c-0.393-0.391-0.393-1.023,0-1.414c0.391-0.391,1.023-0.391,1.414,0l6.205,6.291l6.379-6.291c0.391-0.391,1.023-0.393,1.414,0
	C-357.213,849.173-357.213,849.806-357.604,850.196z"/>
<path fill="#DE7854" d="M-205.497,840.489c-6.627,0-12,5.373-12,12c0,6.627,5.373,12,12,12c6.627,0,12-5.373,12-12
	C-193.497,845.862-198.87,840.489-205.497,840.489z M-197.898,856.196c-0.391,0.391-1.023,0.391-1.414,0l-6.287-6.293l-6.713,6.293
	c-0.391,0.391-1.024,0.391-1.414,0c-0.391-0.391-0.391-1.023,0-1.414l7.42-7c0.391-0.391,1.023-0.391,1.414,0l6.994,7
	C-197.507,855.173-197.507,855.806-197.898,856.196z"/>
<g>
	<path fill="#5AADAA" d="M-45.496,1479.502c7.167,0,12.998,5.831,12.998,12.998s-5.831,12.998-12.998,12.998
		s-12.998-5.831-12.998-12.998S-52.663,1479.502-45.496,1479.502 M-45.496,1477.502c-8.283,0-14.998,6.715-14.998,14.998
		s6.715,14.998,14.998,14.998s14.998-6.715,14.998-14.998S-37.213,1477.502-45.496,1477.502L-45.496,1477.502z"/>
</g>
<g>
	<path fill="#C6D6D4" d="M-364.694,1653.49c-0.228,0.051-0.424,0.108-0.576,0.174c-1.584,0.719-2.838,1.873-3.545,3.268
		c0.896,0.697,2.017,1.115,3.244,1.115c0.658,0,1.289-0.125,1.873-0.348c-0.1-0.84-0.26-1.705-0.49-2.582
		C-364.335,1654.557-364.502,1654.014-364.694,1653.49z"/>
	<path fill="#C6D6D4" d="M-365.854,1650.904c-0.631-1.133-1.348-2.105-2.113-2.863c-1.342,0.684-2.348,1.92-2.73,3.41
		c0.271,0.016,0.541,0.025,0.818,0.025C-368.42,1651.477-367.049,1651.268-365.854,1650.904z"/>
	<path fill="#C6D6D4" d="M-365.504,1652.758c0.129-0.053,0.291-0.101,0.473-0.143c-0.113-0.275-0.232-0.543-0.357-0.803
		c-1.33,0.426-2.885,0.684-4.551,0.705c-0.311,0.004-0.615-0.002-0.916-0.016c-0.004,0.084-0.008,0.168-0.008,0.254
		c0,1.34,0.504,2.561,1.322,3.492C-368.764,1654.756-367.329,1653.521-365.504,1652.758z"/>
	<path fill="#C6D6D4" d="M-362.194,1648.682c-0.918-0.762-2.092-1.219-3.377-1.219c-0.451,0-0.885,0.062-1.303,0.17
		c0.754,0.771,1.463,1.752,2.076,2.887C-363.668,1650.043-362.77,1649.41-362.194,1648.682z"/>
	<path fill="#C6D6D4" d="M-375.497,1642.5v20h20v-20H-375.497z M-365.571,1659.105c-3.506,0-6.352-2.842-6.352-6.35
		s2.846-6.349,6.352-6.349c3.506,0,6.352,2.842,6.352,6.349S-362.065,1659.105-365.571,1659.105z"/>
	<path fill="#C6D6D4" d="M-363.585,1653.34c0.137,0.408,0.268,0.824,0.381,1.254c0.234,0.887,0.391,1.76,0.492,2.609
		c1.309-0.842,2.217-2.242,2.397-3.863C-361.301,1653.268-362.545,1653.256-363.585,1653.34z"/>
	<path fill="#C6D6D4" d="M-364.342,1651.42c0.154,0.332,0.297,0.676,0.434,1.027c1.098-0.103,2.471-0.105,3.613-0.043
		c-0.078-1.17-0.533-2.234-1.246-3.074C-362.098,1650.15-363.073,1650.875-364.342,1651.42z"/>
</g>
<g>
	<path fill="#C6D6D4" d="M-205.054,1651.385v-0.023c-0.004,0.008-0.01,0.016-0.016,0.023H-205.054z"/>
	<path fill="#C6D6D4" d="M-215.497,1642.5v20h20v-20H-215.497z M-208.677,1657.389h-2.336v-7.023h2.336V1657.389z
		 M-209.845,1649.408h-0.016c-0.781,0-1.289-0.541-1.289-1.217c0-0.688,0.52-1.209,1.32-1.209c0.793,0,1.289,0.521,1.303,1.209
		C-208.526,1648.867-209.036,1649.408-209.845,1649.408z M-200.261,1657.389h-2.336v-3.758c0-0.943-0.336-1.588-1.18-1.588
		c-0.645,0-1.031,0.434-1.201,0.854c-0.062,0.15-0.076,0.359-0.076,0.57v3.922h-2.332c0,0,0.029-6.363,0-7.023h2.332v0.996
		c0.312-0.479,0.863-1.16,2.105-1.16c1.535,0,2.688,1.004,2.688,3.16V1657.389z"/>
</g>
<path fill="#C6D6D4" d="M104.504,1642.5v20h20v-20H104.504z M111.182,1655.596c-1.643,0-2.971-1.33-2.971-2.971
	s1.328-2.973,2.971-2.973c1.641,0,2.969,1.332,2.969,2.973S112.822,1655.596,111.182,1655.596z M117.736,1655.596
	c-1.646,0-2.971-1.33-2.971-2.971s1.324-2.973,2.971-2.973c1.641,0,2.971,1.332,2.971,2.973S119.377,1655.596,117.736,1655.596z"/>
<path fill="#C6D6D4" d="M104.504,1482.5v20h20v-20H104.504z M116.99,1492.676h-1.725v6.25h-2.586v-6.25h-1.293v-2.154h1.293v-1.293
	c0-1.758,0.73-2.801,2.801-2.801h1.725v2.152h-1.076c-0.809,0-0.861,0.301-0.861,0.863l-0.002,1.078h1.951L116.99,1492.676z"/>
<path fill="#C6D6D4" d="M424.504,1482.5v20h20v-20H424.504z M435.113,1496.158c-0.846,0-1.645-0.457-1.916-0.977
	c0,0-0.457,1.809-0.553,2.158c-0.342,1.234-1.344,2.469-1.418,2.57c-0.055,0.07-0.176,0.047-0.19-0.045
	c-0.018-0.158-0.275-1.715,0.025-2.984c0.148-0.639,1.012-4.281,1.012-4.281s-0.252-0.5-0.252-1.242
	c0-1.164,0.676-2.031,1.516-2.031c0.713,0,1.06,0.535,1.06,1.178c0,0.719-0.461,1.793-0.695,2.787
	c-0.197,0.834,0.418,1.512,1.236,1.512c1.488,0,2.492-1.91,2.492-4.174c0-1.721-1.162-3.01-3.266-3.01
	c-2.385,0-3.867,1.777-3.867,3.762c0,0.684,0.203,1.168,0.516,1.539c0.145,0.172,0.166,0.242,0.113,0.438
	c-0.035,0.145-0.123,0.492-0.158,0.631c-0.055,0.197-0.215,0.27-0.395,0.195c-1.096-0.447-1.609-1.648-1.609-2.998
	c0-2.232,1.883-4.906,5.615-4.906c3,0,4.971,2.168,4.971,4.498C439.352,1493.857,437.641,1496.158,435.113,1496.158z"/>
<path fill="#C6D6D4" d="M264.504,1482.5v20h20v-20H264.504z M280.598,1489.572c0.008,0.135,0.012,0.268,0.012,0.406
	c0,4.149-3.162,8.936-8.937,8.936c-1.775,0-3.426-0.52-4.815-1.41c0.244,0.027,0.496,0.043,0.748,0.043
	c1.475,0,2.83-0.502,3.9-1.344c-1.375-0.025-2.533-0.936-2.934-2.182c0.191,0.035,0.387,0.057,0.592,0.057
	c0.287,0,0.562-0.039,0.828-0.111c-1.438-0.289-2.521-1.557-2.521-3.078c0-0.014,0-0.027,0.002-0.041
	c0.424,0.236,0.906,0.377,1.424,0.392c-0.844-0.561-1.398-1.523-1.398-2.613c0-0.576,0.156-1.115,0.424-1.578
	c1.551,1.898,3.865,3.15,6.475,3.281c-0.053-0.23-0.08-0.471-0.08-0.719c0-1.732,1.406-3.139,3.143-3.139
	c0.902,0,1.719,0.381,2.287,0.992c0.719-0.141,1.389-0.402,1.996-0.762c-0.232,0.732-0.73,1.348-1.379,1.736
	c0.635-0.074,1.238-0.244,1.803-0.492C281.744,1488.574,281.213,1489.129,280.598,1489.572z"/>
<path fill="#C6D6D4" d="M424.504,1642.5v3v14v3h20v-3v-14v-3H424.504z M437.504,1645.5c0-0.553,0.447-1,1-1h2c0.553,0,1,0.447,1,1v2
	c0,0.551-0.447,1-1,1h-2c-0.553,0-1-0.449-1-1V1645.5z M434.506,1650.5c1.654,0,2.998,1.344,2.998,3c0,1.656-1.344,3-2.998,3
	c-1.658,0-3.002-1.344-3.002-3C431.504,1651.844,432.848,1650.5,434.506,1650.5z M442.504,1658.5c0,1.104-0.895,2-2,2h-12
	c-1.104,0-2-0.896-2-2v-7h2.35c-0.223,0.625-0.35,1.297-0.35,2c0,3.315,2.685,6,6,6c3.314,0,6-2.685,6-6
	c0-0.703-0.127-1.375-0.348-2h2.348V1658.5z"/>
<g>
	<g>
		<path fill="#C6D6D4" d="M274.174,1650.149c0.084,0,0.154-0.027,0.203-0.08c0.055-0.051,0.078-0.123,0.078-0.217v-1.855
			c0-0.074-0.025-0.137-0.078-0.182c-0.053-0.045-0.119-0.068-0.203-0.068c-0.076,0-0.139,0.023-0.189,0.068
			c-0.047,0.045-0.07,0.108-0.07,0.182v1.855c0,0.096,0.021,0.168,0.068,0.219C274.027,1650.122,274.09,1650.149,274.174,1650.149z"
			/>
		<path fill="#C6D6D4" d="M264.518,1642.515v19.971h19.971v-19.971H264.518z M275.639,1647.243h0.635v2.613
			c0,0.082,0.014,0.141,0.039,0.176c0.029,0.035,0.068,0.055,0.131,0.055c0.043,0,0.104-0.025,0.176-0.072
			c0.072-0.049,0.135-0.109,0.195-0.183v-2.588h0.635v3.41h-0.635v-0.377c-0.115,0.139-0.238,0.244-0.363,0.316
			s-0.25,0.109-0.371,0.109c-0.145,0-0.254-0.051-0.33-0.154c-0.074-0.1-0.111-0.252-0.111-0.455V1647.243z M274.205,1647.157
			c0.264,0,0.477,0.082,0.645,0.246c0.168,0.166,0.252,0.379,0.252,0.637v1.762c0,0.293-0.084,0.521-0.246,0.688
			c-0.166,0.166-0.391,0.25-0.68,0.25c-0.277,0-0.5-0.086-0.666-0.258c-0.168-0.172-0.25-0.402-0.25-0.691v-1.768
			c0-0.264,0.082-0.474,0.258-0.633C273.689,1647.233,273.916,1647.157,274.205,1647.157z M271.615,1646.03l0.465,1.846h0.045
			l0.441-1.846h0.729l-0.836,2.703v1.92h-0.711v-1.832l-0.852-2.791H271.615z M279.682,1657.003c0,0.822-0.674,1.492-1.508,1.492
			c-1.191,0.051-2.408,0.072-3.648,0.07c-1.238,0.002-2.457-0.02-3.646-0.07c-0.832,0-1.508-0.67-1.508-1.492
			c-0.051-0.652-0.074-1.305-0.07-1.957c-0.004-0.65,0.02-1.305,0.07-1.957c0-0.822,0.676-1.49,1.508-1.49
			c1.131-0.047,2.285-0.07,3.461-0.07c0.062,0,0.125,0,0.186,0c0.063,0,0.125,0,0.184,0c1.178,0,2.334,0.023,3.465,0.07
			c0.834,0,1.508,0.668,1.508,1.49c0.049,0.652,0.072,1.307,0.07,1.957C279.754,1655.698,279.73,1656.351,279.682,1657.003z"/>
	</g>
	<path fill="#C6D6D4" d="M272.301,1652.669h-2.193v0.672h0.74v3.951h0.713v-3.951h0.74V1652.669z M273.467,1656.472
		c-0.059,0.072-0.125,0.135-0.193,0.182c-0.072,0.049-0.131,0.072-0.178,0.072c-0.059,0-0.102-0.019-0.129-0.055
		c-0.025-0.037-0.039-0.094-0.039-0.176v-2.613h-0.635v2.85c0,0.203,0.037,0.355,0.111,0.457c0.072,0.102,0.185,0.152,0.332,0.152
		c0.119,0,0.24-0.035,0.367-0.107c0.129-0.074,0.246-0.18,0.363-0.316v0.375h0.635v-3.41h-0.635V1656.472z M275.926,1653.837
		c-0.098,0-0.195,0.027-0.293,0.082c-0.094,0.055-0.185,0.133-0.271,0.238v-1.488h-0.641v4.623h0.641v-0.262
		c0.086,0.104,0.176,0.18,0.27,0.23c0.1,0.051,0.209,0.074,0.334,0.074c0.188,0,0.33-0.064,0.432-0.193
		c0.098-0.129,0.148-0.314,0.148-0.557v-1.893c0-0.277-0.055-0.49-0.16-0.637C276.279,1653.911,276.127,1653.837,275.926,1653.837
		 M275.891,1656.491c0,0.109-0.018,0.189-0.055,0.236c-0.035,0.049-0.096,0.072-0.172,0.072c-0.053,0-0.102-0.012-0.152-0.037
		c-0.047-0.025-0.098-0.064-0.15-0.121v-2.125c0.045-0.045,0.09-0.08,0.131-0.102c0.047-0.023,0.09-0.035,0.133-0.035
		c0.09,0,0.154,0.031,0.199,0.09c0.043,0.059,0.066,0.146,0.066,0.262V1656.491z M278.889,1655.665v-0.867
		c0-0.322-0.08-0.57-0.234-0.744c-0.156-0.172-0.383-0.258-0.67-0.258c-0.281,0-0.514,0.092-0.695,0.279
		c-0.178,0.188-0.268,0.426-0.268,0.723v1.531c0,0.328,0.082,0.588,0.244,0.773c0.164,0.188,0.387,0.281,0.672,0.281
		c0.314,0,0.553-0.088,0.713-0.266c0.158-0.176,0.238-0.439,0.238-0.789v-0.256h-0.652v0.236c0,0.201-0.022,0.33-0.062,0.391
		c-0.043,0.057-0.117,0.088-0.221,0.088c-0.102,0-0.172-0.035-0.215-0.104c-0.043-0.07-0.064-0.195-0.064-0.375v-0.645H278.889z
		 M277.674,1654.792c0-0.143,0.023-0.246,0.068-0.307c0.047-0.062,0.113-0.092,0.217-0.092c0.098,0,0.168,0.029,0.209,0.092
		c0.047,0.06,0.068,0.164,0.068,0.307v0.346h-0.562V1654.792z"/>
</g>
<g>
	<g>
		<path fill="#C6D6D4" d="M-48.989,1652.25c0.547-0.625,0.76-1.445,0.76-1.865c0-2.098-1.217-5.357-3.621-5.357
			c-0.758,0-1.568,0.377-2.033,0.961c-0.496,0.611-0.57,1.396-0.57,2.154c0,1.949,1.023,4.836,3.519,4.836
			C-50.21,1652.979-49.464,1652.793-48.989,1652.25z"/>
		<path fill="#C6D6D4" d="M-51.757,1655.219c0-0.494,0.145-0.785,0.289-1.137c-0.32,0.029-0.639,0.059-0.928,0.059
			c-1.271,0-2.318-0.469-3.105-1.094v5.027c1.324-0.976,3.529-0.801,4.613-0.875C-51.294,1656.674-51.757,1656.123-51.757,1655.219z
			"/>
		<path fill="#C6D6D4" d="M-49.901,1658.045c-0.232-0.029-0.377-0.029-0.666-0.029c-0.26,0-1.828,0.059-3.049,0.465
			c-0.4,0.147-1.285,0.488-1.885,1.229v2.791h9.295c0.041-0.133,0.113-0.316,0.109-0.584
			C-46.112,1660.428-47.696,1659.617-49.901,1658.045z"/>
	</g>
	<path fill="#C6D6D4" d="M-35.501,1649.266v0.002h-3.791v3.711h-1.578v-3.711h-3.68v-0.002h-0.014v-1.562h3.693v-3.66h1.578v3.66
		h3.801v-5.203h-20.01v3.303c0.049-0.047,0.096-0.094,0.145-0.135c1.656-1.369,3.473-1.598,4.988-1.625h6.135l-1.629,1.314
		c0,0-1.535,0-1.777,0c0.711,0.617,1.775,1.723,1.775,3.688c0,2.154-1.135,3.178-2.354,4.137c-0.377,0.377-0.812,0.785-0.812,1.426
		s0.436,0.99,0.754,1.252l1.045,0.814c1.275,1.078,2.943,2.326,2.943,4.336c0,0.527-0.057,1.086-0.223,1.49h9.02v-13.234H-35.501z"
		/>
</g>
<g>
	<g>
		<g>
			<path fill="#FFFFFF" d="M-40.845,1010.824c0-3.494-2.834-6.327-6.328-6.327c-3.494,0-6.326,2.833-6.326,6.327
				c0,3.494,2.832,6.327,6.326,6.327C-43.679,1017.15-40.845,1014.318-40.845,1010.824z M-47.173,1015.204
				c-2.42,0-4.381-1.961-4.381-4.38c0-2.419,1.961-4.38,4.381-4.38c2.418,0,4.381,1.961,4.381,4.38
				C-42.792,1013.242-44.755,1015.204-47.173,1015.204z M-37.925,1018.124l-3.895-3.894v1.947h-1.947l3.895,3.893
				c0,0,0.973,0.974,1.947,0C-36.952,1019.097-37.925,1018.124-37.925,1018.124z"/>
		</g>
	</g>
</g>
<g>
	<g>
		<g>
			<path fill="#C5D6D3" d="M-200.188,1812c-1.027-2-6.16-2-6.16-2v-3l-5.135,5l5.135,5v-3c0,0,3.08,0,4.107,1
				c1.027,1,1.027,2,1.027,3C-199.16,1816-199.16,1814-200.188,1812z"/>
		</g>
	</g>
</g>
<g>
	<path fill="#DE7854" d="M114.504,1793.153c-7.891,0-14.311,6.42-14.311,14.311c0,9.645,11.119,21.828,14.311,24.383
		c3.191-2.555,14.31-14.738,14.31-24.383C128.814,1799.573,122.394,1793.153,114.504,1793.153z"/>
	<path fill="#FFFFFF" d="M114.504,1812.877c-2.984,0-5.414-2.429-5.414-5.413c0-2.986,2.43-5.414,5.414-5.414
		c2.986,0,5.414,2.428,5.414,5.414C119.918,1810.448,117.49,1812.877,114.504,1812.877z"/>
</g>
<g>
	<g>
		<path fill-rule="evenodd" clip-rule="evenodd" fill="#FFFFFF" d="M266.004,1819.999h16.998v-3h-16.998V1819.999z M266.004,1814
			h16.998v-3h-16.998V1814z M266.004,1805.001v3h16.998v-3H266.004z"/>
	</g>
</g>
</svg>
