<svg id="Layer_4" data-name="Layer 4" xmlns="http://www.w3.org/2000/svg" width="960" height="1120.01" viewBox="0 0 960 1120.01"><defs><style>.cls-1{fill:#eb212e;}.cls-1,.cls-2{opacity:0.25;isolation:isolate;}.cls-2,.cls-7{fill:#c6d6d4;}.cls-3{fill:#de7854;}.cls-4{fill:#a4b2b0;}.cls-5,.cls-9{fill:#fff;}.cls-6{fill:#5aadaa;}.cls-8{fill:#c5d6d3;}.cls-9{fill-rule:evenodd;}</style></defs><title>Issue_Sprites</title><rect class="cls-1" width="1" height="1"/><rect class="cls-2" x="959" y="1119.01" width="1" height="1"/><path class="cls-3" d="M240,376a24,24,0,1,0,24,24A24,24,0,0,0,240,376Zm0,46a22,22,0,1,1,22-22A22,22,0,0,1,240,422Z"/><path class="cls-3" d="M235,400a1,1,0,0,0,1,1h8a1,1,0,0,0,0-2h-8a1,1,0,0,0-1,1h0Z"/><path class="cls-3" d="M238,404h-5a4,4,0,1,1,0-8h5a2,2,0,0,0-2-2h-3a6,6,0,1,0,0,12h3A2,2,0,0,0,238,404Z"/><path class="cls-3" d="M247,394h-3a2,2,0,0,0-2,2h5a4,4,0,0,1,0,8h-5a2,2,0,0,0,2,2h3A6,6,0,0,0,247,394Z"/><path class="cls-4" d="M720,376a24,24,0,1,0,24,24A24,24,0,0,0,720,376Zm0,46a22,22,0,1,1,22-22A22,22,0,0,1,720,422Z"/><path class="cls-4" d="M729,392a1,1,0,0,1-1,1h-9a1,1,0,0,1-1-1h0a1,1,0,0,1,1-1h9a1,1,0,0,1,1,1h0Z"/><path class="cls-4" d="M728.71,391.3a1,1,0,0,1,0,1.41l-9.9,9.9a1,1,0,0,1-1.41,0h0a1,1,0,0,1,0-1.41l9.9-9.9a1,1,0,0,1,1.41,0h0Z"/><path class="cls-4" d="M728,391a1,1,0,0,1,1,1v9a1,1,0,0,1-1,1h0a1,1,0,0,1-1-1v-9a1,1,0,0,1,1-1h0Z"/><path class="cls-4" d="M726.1,402.91a2,2,0,0,0-2-2v4a1,1,0,0,1-1,1h-8a1,1,0,0,1-1-1v-8a1,1,0,0,1,1-1h4a2,2,0,0,0-2-2h-2a3,3,0,0,0-3,3v8a3,3,0,0,0,3,3h8a3,3,0,0,0,3-3S726.1,404.91,726.1,402.91Z"/><path class="cls-3" d="M80.59,242.42a1,1,0,0,1,0-1.41H81a0.57,0.57,0,0,1,1,0l7.71,7.29a1,1,0,0,1,0,1.41h0a1,1,0,0,1-1.41,0Z"/><path class="cls-3" d="M80,216a24,24,0,1,0,24,24A24,24,0,0,0,80,216Zm0,46a22,22,0,1,1,22-22A22,22,0,0,1,80,262Z"/><path class="cls-3" d="M77,230a7,7,0,1,0,7,7A7,7,0,0,0,77,230Zm0,12a5,5,0,1,1,5-5A5,5,0,0,1,77,242Z"/><path class="cls-5" d="M240.59,242.42a1,1,0,0,1,0-1.41H241a0.57,0.57,0,0,1,1,0l7.71,7.29a1,1,0,0,1,0,1.41h0a1,1,0,0,1-1.41,0Z"/><path class="cls-5" d="M240,216a24,24,0,1,0,24,24A24,24,0,0,0,240,216Zm0,46a22,22,0,1,1,22-22A22,22,0,0,1,240,262Z"/><path class="cls-5" d="M237,230a7,7,0,1,0,7,7A7,7,0,0,0,237,230Zm0,12a5,5,0,1,1,5-5A5,5,0,0,1,237,242Z"/><path class="cls-6" d="M556.81,570.51a1,1,0,0,1-1.41,0h0a1,1,0,0,1,0-1.41l9.9-9.9a1,1,0,0,1,1.41,0h0a1,1,0,0,1,0,1.41Z"/><path class="cls-6" d="M555.39,550.71a1,1,0,0,1,0-1.41h0a1,1,0,0,1,1.41,0l9.9,9.9a1,1,0,0,1,0,1.41h0a1,1,0,0,1-1.41,0Z"/><path class="cls-6" d="M560,536a24,24,0,1,0,24,24A24,24,0,0,0,560,536Zm0,46a22,22,0,1,1,22-22A22,22,0,0,1,560,582Z"/><path class="cls-6" d="M403.19,549.49a1,1,0,0,1,1.41,0h0a1,1,0,0,1,0,1.41l-9.9,9.9a1,1,0,0,1-1.41,0h0a1,1,0,0,1,0-1.41Z"/><path class="cls-6" d="M404.61,569.29a1,1,0,0,1,0,1.41h0a1,1,0,0,1-1.41,0l-9.9-9.9a1,1,0,0,1,0-1.41h0a1,1,0,0,1,1.41,0Z"/><path class="cls-6" d="M400,584a24,24,0,1,0-24-24A24,24,0,0,0,400,584Zm0-46a22,22,0,1,1-22,22A22,22,0,0,1,400,538Z"/><path class="cls-6" d="M235.76,730.62a1,1,0,0,1-1.41,0h0a1,1,0,0,1,0-1.41l9.9-9.9a1,1,0,0,1,1.41,0h0a1,1,0,0,1,0,1.41Z"/><path class="cls-6" d="M234.34,710.82a1,1,0,0,1,0-1.41h0a1,1,0,0,1,1.41,0l9.9,9.9a1,1,0,0,1,0,1.41h0a1,1,0,0,1-1.41,0Z"/><path class="cls-6" d="M84.24,709.4a1,1,0,0,1,1.41,0h0a1,1,0,0,1,0,1.41l-9.9,9.9a1,1,0,0,1-1.41,0h0a1,1,0,0,1,0-1.41Z"/><path class="cls-6" d="M85.66,729.2a1,1,0,0,1,0,1.41h0a1,1,0,0,1-1.41,0l-9.9-9.9a1,1,0,0,1,0-1.41h0a1,1,0,0,1,1.41,0Z"/><path class="cls-6" d="M80,536a24,24,0,1,0,24,24A24,24,0,0,0,80,536Zm0,46a22,22,0,1,1,22-22A22,22,0,0,1,80,582Z"/><path class="cls-6" d="M80,584a24,24,0,1,0-24-24A24,24,0,0,0,80,584Zm0-46a22,22,0,1,1-22,22A22,22,0,0,1,80,538Z"/><path class="cls-6" d="M77.91,570.71a1,1,0,0,1-1.41,0h0a1,1,0,0,1,0-1.41l15.8-15.8a1,1,0,0,1,1.41,0h0a1,1,0,0,1,0,1.41Z"/><path class="cls-6" d="M80,536a24,24,0,1,0,24,24A24,24,0,0,0,80,536Zm0,46a22,22,0,1,1,22-22A22,22,0,0,1,80,582Z"/><path class="cls-6" d="M77.81,569.29a1,1,0,0,1,0,1.41h0a1,1,0,0,1-1.41,0l-9.9-9.9a1,1,0,0,1,0-1.41h0a1,1,0,0,1,1.41,0Z"/><path class="cls-6" d="M80,584a24,24,0,1,0-24-24A24,24,0,0,0,80,584Zm0-46a22,22,0,1,1-22,22A22,22,0,0,1,80,538Z"/><path class="cls-3" d="M880,216a24,24,0,1,0,24,24A24,24,0,0,0,880,216Zm0,46a22,22,0,1,1,22-22A22,22,0,0,1,880,262Z"/><path class="cls-3" d="M880,230.66a1.09,1.09,0,0,1,.55.12l8.67,5.78A2.26,2.26,0,0,1,890,238v9H870v-9a2.26,2.26,0,0,1,.77-1.45l8.67-5.78a1.11,1.11,0,0,1,.55-0.12m0-2a3,3,0,0,0-1.66.46l-8.67,5.78A4.19,4.19,0,0,0,868,238v9a2,2,0,0,0,2,2h20a2,2,0,0,0,2-2v-9a4.18,4.18,0,0,0-1.66-3.11l-8.67-5.78a3,3,0,0,0-1.66-.46h0Z"/><path class="cls-3" d="M880,244a1,1,0,0,1-.45-0.11l-8-4a1,1,0,0,1,.89-1.79l7.55,3.78,7.55-3.78a1,1,0,0,1,.89,1.79l-8,4A1,1,0,0,1,880,244Z"/><path class="cls-4" d="M560,216a24,24,0,1,0,24,24A24,24,0,0,0,560,216Zm0,46a22,22,0,1,1,22-22A22,22,0,0,1,560,262Z"/><path class="cls-4" d="M560,230.66a1.09,1.09,0,0,1,.55.12l8.67,5.78A2.26,2.26,0,0,1,570,238v9H550v-9a2.26,2.26,0,0,1,.77-1.45l8.67-5.78a1.11,1.11,0,0,1,.55-0.12m0-2a3,3,0,0,0-1.66.46l-8.67,5.78A4.19,4.19,0,0,0,548,238v9a2,2,0,0,0,2,2h20a2,2,0,0,0,2-2v-9a4.18,4.18,0,0,0-1.66-3.11l-8.67-5.78a3,3,0,0,0-1.66-.46h0Z"/><path class="cls-4" d="M560,244a1,1,0,0,1-.45-0.11l-8-4a1,1,0,0,1,.89-1.79l7.55,3.78,7.55-3.78a1,1,0,0,1,.89,1.79l-8,4A1,1,0,0,1,560,244Z"/><path class="cls-4" d="M720,536a24,24,0,1,0,24,24A24,24,0,0,0,720,536Zm0,46a22,22,0,1,1,22-22A22,22,0,0,1,720,582Z"/><path class="cls-4" d="M724.4,555.82l-0.23-.1a6.13,6.13,0,0,0-1.26-.4,7.72,7.72,0,0,0-1.53-.14,6.82,6.82,0,0,0-2.88.58,6.51,6.51,0,0,0-2.09,1.49,6.27,6.27,0,0,0-1.27,2,6.36,6.36,0,0,0-.43,2.25,5.14,5.14,0,0,0,.19,1.43,3.34,3.34,0,0,0,.61,1.19,2.83,2.83,0,0,0,1,.79,3.36,3.36,0,0,0,1.43.29,4.25,4.25,0,0,0,2-.47,4.41,4.41,0,0,0,1.3-1.06,2.24,2.24,0,0,0,.73,1,2.85,2.85,0,0,0,1.77.53,4.47,4.47,0,0,0,2.1-.51,5.24,5.24,0,0,0,1.67-1.39,6.68,6.68,0,0,0,1.1-2.07,8.22,8.22,0,0,0,.4-2.59,9.19,9.19,0,0,0-.34-2.56,8.28,8.28,0,0,0-1-2.15,8,8,0,0,0-1.47-1.72,8.88,8.88,0,0,0-1.87-1.25,9.65,9.65,0,0,0-2.15-.76,10.2,10.2,0,0,0-5,.11,10,10,0,0,0-2.38,1,9.72,9.72,0,0,0-2,1.6,10.3,10.3,0,0,0-2.9,7.19,11.31,11.31,0,0,0,.8,4.37,9.48,9.48,0,0,0,2.22,3.27,9.7,9.7,0,0,0,3.33,2,11.88,11.88,0,0,0,4.13.71,13.84,13.84,0,0,0,4-.53,11.55,11.55,0,0,0,3.12-1.45l0.2-.13-0.4-1.06a0.7,0.7,0,0,0-.66-0.48,1,1,0,0,0-.49.15,10.07,10.07,0,0,1-2.45,1,12.15,12.15,0,0,1-3.28.4,9.72,9.72,0,0,1-3.24-.53,7.19,7.19,0,0,1-4.36-4.16,9.38,9.38,0,0,1-.65-3.62,8.55,8.55,0,0,1,.6-3.24,8,8,0,0,1,1.65-2.57,7.64,7.64,0,0,1,2.45-1.7,8.46,8.46,0,0,1,5.77-.2,6.07,6.07,0,0,1,2.18,1.24,5.79,5.79,0,0,1,1.45,2.06,7.36,7.36,0,0,1,.53,2.91,7.29,7.29,0,0,1-.23,1.9,5.09,5.09,0,0,1-.62,1.45,3,3,0,0,1-.88.9,1.93,1.93,0,0,1-1.47.25,0.78,0.78,0,0,1-.32-0.17,0.85,0.85,0,0,1-.22-0.34,1.8,1.8,0,0,1-.09-0.64,6.35,6.35,0,0,1,.23-1.47Zm-6,7.35a1.15,1.15,0,0,1-1-.43,2.06,2.06,0,0,1-.35-1.26,4.4,4.4,0,0,1,.3-1.58,4.56,4.56,0,0,1,.83-1.37,4.15,4.15,0,0,1,1.25-1,3.49,3.49,0,0,1,1.58-.36,4.86,4.86,0,0,1,.69,0l-0.87,3.38a5.4,5.4,0,0,1-.49,1.28,2.85,2.85,0,0,1-.61.77,1.94,1.94,0,0,1-.66.38A2.33,2.33,0,0,1,718.41,563.16Z"/><path class="cls-4" d="M880,376a24,24,0,1,0,24,24A24,24,0,0,0,880,376Zm0,46a22,22,0,1,1,22-22A22,22,0,0,1,880,422Z"/><path class="cls-4" d="M880,388.76a0.46,0.46,0,0,1,.26.06l8.93,7.44A3,3,0,0,1,890,398v10h-5v-6a4,4,0,0,0-4-4h-2a4,4,0,0,0-4,4v6h-5V398a3,3,0,0,1,.82-1.74l8.93-7.44a0.47,0.47,0,0,1,.26-0.06m0-2a2.4,2.4,0,0,0-1.54.53l-8.93,7.44A4.86,4.86,0,0,0,868,398v10a2,2,0,0,0,2,2h5a2,2,0,0,0,2-2v-6a2,2,0,0,1,2-2h2a2,2,0,0,1,2,2v6a2,2,0,0,0,2,2h5a2,2,0,0,0,2-2V398a4.87,4.87,0,0,0-1.54-3.28l-8.93-7.44a2.41,2.41,0,0,0-1.54-.53h0Z"/><path class="cls-4" d="M876,391v-1a2,2,0,0,0-2-2h-2a2,2,0,0,0-2,2v5h0l2-1.33V390h2v2.33Z"/><path class="cls-4" d="M400,1064a24,24,0,1,0-24-24A24,24,0,0,0,400,1064Zm0-46a22,22,0,1,1-22,22A22,22,0,0,1,400,1018Z"/><path class="cls-4" d="M400.3,1026a11,11,0,0,0-11,11c0,8,10,18,11,18s11-10,11-18A11,11,0,0,0,400.3,1026Zm0,16a5,5,0,1,1,5-5A5,5,0,0,1,400.3,1042Z"/><path class="cls-4" d="M880,536a24,24,0,1,0,24,24A24,24,0,0,0,880,536Zm0,46a22,22,0,1,1,22-22A22,22,0,0,1,880,582Z"/><path class="cls-4" d="M890,554H870a2,2,0,0,0-2,2v11a2,2,0,0,0,2,2h20a2,2,0,0,0,2-2V556A2,2,0,0,0,890,554Zm-1.63,13H870V556h20v11h-1.63Z"/><path class="cls-4" d="M883,560a1,1,0,0,1-1,1h-8a1,1,0,0,1-1-1h0a1,1,0,0,1,1-1h8a1,1,0,0,1,1,1h0Z"/><path class="cls-4" d="M880,564a1,1,0,0,1-1,1h-5a1,1,0,0,1-1-1h0a1,1,0,0,1,1-1h5a1,1,0,0,1,1,1h0Z"/><path class="cls-4" d="M888,561a1,1,0,0,1-1,1h-1a1,1,0,0,1-1-1v-2a1,1,0,0,1,1-1h1a1,1,0,0,1,1,1v2Z"/><rect class="cls-4" x="79" y="1036.01" width="2" height="4"/><rect class="cls-4" x="77.1" y="1037.48" width="2" height="4" transform="translate(-934.74 792.98) rotate(-72.03)"/><rect class="cls-4" x="76.82" y="1040.71" width="4" height="2" transform="translate(-810.39 493.38) rotate(-54.01)"/><rect class="cls-4" x="80.18" y="1039.71" width="2" height="4" transform="translate(-596.62 246.51) rotate(-35.99)"/><rect class="cls-4" x="79.9" y="1038.48" width="4" height="2" transform="translate(-316.78 76.01) rotate(-17.97)"/><path class="cls-6" d="M80,376a24,24,0,1,0,24,24A24,24,0,0,0,80,376Zm0,46a22,22,0,1,1,22-22A22,22,0,0,1,80,422Z"/><path class="cls-6" d="M86,409.36a6.25,6.25,0,0,1-6.24-6.24c0-.06-0.15-8.9,8.2-12.38a1,1,0,0,1,1.28,1.51,17.4,17.4,0,0,0-1.78,4.81A6.24,6.24,0,0,1,86,409.36Zm0.12-15.17a11.84,11.84,0,0,0-4.28,8.9A4.16,4.16,0,1,0,86.17,399a1,1,0,0,1-1-1.25A31.51,31.51,0,0,1,86.12,394.19Z"/><path class="cls-6" d="M72,409.36a6.25,6.25,0,0,1-6.24-6.24c0-.06-0.15-8.9,8.2-12.38a1,1,0,0,1,1.28,1.51,17.4,17.4,0,0,0-1.78,4.81A6.24,6.24,0,0,1,72,409.36Zm0.12-15.17a11.84,11.84,0,0,0-4.28,8.9A4.16,4.16,0,1,0,72.17,399a1,1,0,0,1-1-1.25A32,32,0,0,1,72.12,394.19Z"/><path class="cls-6" d="M250.61,549.49a1,1,0,0,0-1.41,0l-9.09,9.09-9.29-9.29a1,1,0,1,0-1.41,1.41l9.19,9.19-9.19,9.19a1,1,0,1,0,1.41,1.41l9.09-9.09,9.29,9.29a1,1,0,1,0,1.41-1.41l-9.19-9.19,9.19-9.19A1,1,0,0,0,250.61,549.49ZM240,536a24,24,0,1,0,24,24A24,24,0,0,0,240,536Zm0,46a22,22,0,1,1,22-22A22,22,0,0,1,240,582Z"/><path class="cls-4" d="M560,376a24,24,0,1,0,24,24A24,24,0,0,0,560,376Zm0,46a22,22,0,1,1,22-22A22,22,0,0,1,560,422Z"/><path class="cls-4" d="M555.16,404.68a1.16,1.16,0,0,1,1.16,1.16,1.14,1.14,0,0,1-1.16,1.15,1.15,1.15,0,1,1,0-2.31m0-2a3.15,3.15,0,1,0,3.16,3.16,3.17,3.17,0,0,0-3.16-3.16h0Z"/><path class="cls-4" d="M565.21,410a1,1,0,0,1-1-1A12.22,12.22,0,0,0,552,396.81a1,1,0,0,1,0-2A14.22,14.22,0,0,1,566.21,409,1,1,0,0,1,565.21,410Z"/><path class="cls-4" d="M572,410a1,1,0,0,1-1-1,19,19,0,0,0-19-19,1,1,0,0,1,0-2,21,21,0,0,1,21,21A1,1,0,0,1,572,410Z"/><path class="cls-4" d="M400.16,411a1.15,1.15,0,1,1-1.16,1.16,1.16,1.16,0,0,1,1.16-1.16m0-2a3.15,3.15,0,1,0,3.16,3.16,3.17,3.17,0,0,0-3.16-3.16h0Z"/><path class="cls-4" d="M400,376a24,24,0,1,0,24,24A24,24,0,0,0,400,376Zm0,46a22,22,0,1,1,22-22A22,22,0,0,1,400,422Z"/><path class="cls-4" d="M408,393a7,7,0,1,0-13.6,2.34,1,1,0,1,0,1.88-.67A5,5,0,1,1,406,393a6.08,6.08,0,0,1-.86,2.48,7.45,7.45,0,0,1-3.29,2.81,5.67,5.67,0,0,0-1.56,1A5.79,5.79,0,0,0,399,403v4a1,1,0,0,0,2,0v-4a3.94,3.94,0,0,1,.71-2.29,4.21,4.21,0,0,1,1-.63,9.41,9.41,0,0,0,4.09-3.53l0,0,0,0A6.67,6.67,0,0,0,408,393Z"/><path class="cls-3" d="M720,216a24,24,0,1,0,24,24A24,24,0,0,0,720,216Zm12,31a2,2,0,0,1-2,2H710a2,2,0,0,1-2-2v-9a4.19,4.19,0,0,1,1.66-3.11l8.67-5.78a3.25,3.25,0,0,1,3.33,0l8.67,5.78A4.18,4.18,0,0,1,732,238v9Z"/><path class="cls-3" d="M729.23,236.57l-8.67-5.78a1.09,1.09,0,0,0-.55-0.12,1.11,1.11,0,0,0-.55.12l-8.67,5.78A2.26,2.26,0,0,0,710,238v9h20v-9A2.26,2.26,0,0,0,729.23,236.57Zm-0.78,3.34-8,4a1,1,0,0,1-.89,0l-8-4a1,1,0,0,1,.89-1.79l7.55,3.78,7.55-3.78A1,1,0,0,1,728.45,239.91Z"/><path class="cls-4" d="M400,56a24,24,0,1,0,24,24A24,24,0,0,0,400,56Zm0,46a22,22,0,1,1,22-22A22,22,0,0,1,400,102Z"/><path class="cls-4" d="M405,70v3.45h-1.72c-1.29,0-1.38.48-1.38,1.38v1.73H405L404.64,80h-2.76V90h-4.13V80h-2.07V76.55h2.07V74.48c0-2.81,1.17-4.48,4.48-4.48H405m0-2h-2.76c-4.18,0-6.48,2.3-6.48,6.48v0.07h-0.07a2,2,0,0,0-2,2V80a2,2,0,0,0,2,2h0.07v8a2,2,0,0,0,2,2h4.13a2,2,0,0,0,2-2V82h0.76a2,2,0,0,0,2-1.79L407,76.76a2,2,0,0,0-.5-1.55,1.88,1.88,0,0,0-.24-0.22,2,2,0,0,0,.73-1.54V70a2,2,0,0,0-2-2h0Z"/><path class="cls-4" d="M720,58a22,22,0,1,1-22,22,22,22,0,0,1,22-22m-1.1,16.71a9.72,9.72,0,0,1-5-3.23,2,2,0,0,0-1.55-.74h-0.16a2,2,0,0,0-1.57,1,6.13,6.13,0,0,0-.54,4.89,2,2,0,0,0-.21.44,2.15,2.15,0,0,0-.11.68,6.09,6.09,0,0,0,1.45,3.94,2,2,0,0,0,.09.76,6,6,0,0,0,1.07,2H712a6.67,6.67,0,0,1-.75,0H711a2,2,0,0,0-1.08,3.68A13.67,13.67,0,0,0,731,77a10.37,10.37,0,0,0,1.71-2,2,2,0,0,0-.13-2.4l-0.1-.11a2,2,0,0,0-3-2,6.37,6.37,0,0,1-1.1.51,6.11,6.11,0,0,0-9.43,3.62M720,56a24,24,0,1,0,24,24,24,24,0,0,0-24-24h0Zm0.85,21a4.11,4.11,0,0,1,4-5,4.09,4.09,0,0,1,3,1.29,8.2,8.2,0,0,0,2.61-1,4.11,4.11,0,0,1-1.8,2.27,8.15,8.15,0,0,0,2.36-.65A8.37,8.37,0,0,1,729,76c0,0.18,0,.35,0,0.53a11.67,11.67,0,0,1-18,9.83,8.49,8.49,0,0,0,1,.06,8.21,8.21,0,0,0,5.1-1.76,4.1,4.1,0,0,1-3.83-2.85,4.15,4.15,0,0,0,.77.07,4,4,0,0,0,1.08-.14,4.11,4.11,0,0,1-3.29-4,0.16,0.16,0,0,1,0-.05,4.06,4.06,0,0,0,1.86.51,4.11,4.11,0,0,1-1.27-5.48A11.65,11.65,0,0,0,720.85,77h0Z"/><path class="cls-3" d="M560,56a24,24,0,1,0,24,24A24,24,0,0,0,560,56Zm4.64,24h-2.76V90h-4.13V80h-2.07V76.55h2.07V74.48c0-2.81,1.17-4.48,4.48-4.48H565v3.45h-1.72c-1.29,0-1.38.48-1.38,1.38v1.73H565Z"/><path class="cls-3" d="M880,56a24,24,0,1,0,24,24A24,24,0,0,0,880,56Zm9,20c0,0.18,0,.35,0,0.53a11.67,11.67,0,0,1-18,9.83,8.49,8.49,0,0,0,1,.06,8.21,8.21,0,0,0,5.1-1.76,4.1,4.1,0,0,1-3.83-2.85,4.15,4.15,0,0,0,.77.07,4,4,0,0,0,1.08-.14,4.11,4.11,0,0,1-3.29-4,0.16,0.16,0,0,1,0-.05,4.06,4.06,0,0,0,1.86.51,4.11,4.11,0,0,1-1.27-5.48A11.65,11.65,0,0,0,880.85,77a4.11,4.11,0,0,1,4-5,4.09,4.09,0,0,1,3,1.29,8.2,8.2,0,0,0,2.61-1,4.11,4.11,0,0,1-1.8,2.27,8.15,8.15,0,0,0,2.36-.65A8.37,8.37,0,0,1,889,76Z"/><path class="cls-4" d="M80,68A12,12,0,1,0,92,80,12,12,0,0,0,80,68Zm7.89,9.71-7.09,7a1,1,0,0,1-1.41,0l-6.91-7a1,1,0,0,1,1.41-1.41l6.21,6.29,6.38-6.29A1,1,0,0,1,87.89,77.71Z"/><path class="cls-3" d="M240,68a12,12,0,1,0,12,12A12,12,0,0,0,240,68Zm7.6,15.71a1,1,0,0,1-1.41,0l-6.29-6.29-6.71,6.29a1,1,0,1,1-1.41-1.41l7.42-7a1,1,0,0,1,1.41,0l7,7A1,1,0,0,1,247.6,83.71Z"/><path class="cls-6" d="M400,707a13,13,0,1,1-13,13,13,13,0,0,1,13-13m0-2a15,15,0,1,0,15,15,15,15,0,0,0-15-15h0Z"/><path class="cls-7" d="M80.8,881a3.25,3.25,0,0,0-.58.17,7.3,7.3,0,0,0-3.54,3.27,5.26,5.26,0,0,0,5.12.77,18.94,18.94,0,0,0-.49-2.58Q81.09,881.79,80.8,881Z"/><path class="cls-7" d="M79.64,878.42a12.79,12.79,0,0,0-2.11-2.86A5.31,5.31,0,0,0,74.8,879l0.82,0A13.94,13.94,0,0,0,79.64,878.42Z"/><path class="cls-7" d="M80,880.27a3.07,3.07,0,0,1,.47-0.14q-0.17-.41-0.36-0.8a15.73,15.73,0,0,1-4.55.71l-0.92,0c0,0.08,0,.17,0,0.25A5.28,5.28,0,0,0,76,883.76,7.9,7.9,0,0,1,80,880.27Z"/><path class="cls-7" d="M83.3,876.19a5.23,5.23,0,0,0-4.68-1A13,13,0,0,1,80.7,878,6.52,6.52,0,0,0,83.3,876.19Z"/><path class="cls-7" d="M70,870v20H90V870H70Zm9.93,16.61a6.35,6.35,0,1,1,6.35-6.35A6.35,6.35,0,0,1,79.93,886.62Z"/><path class="cls-7" d="M81.91,880.85c0.14,0.41.27,0.82,0.38,1.25a19,19,0,0,1,.49,2.61,5.28,5.28,0,0,0,2.4-3.86A22.85,22.85,0,0,0,81.91,880.85Z"/><path class="cls-7" d="M81.15,878.93c0.15,0.33.3,0.68,0.43,1a26.17,26.17,0,0,1,3.61,0A5.28,5.28,0,0,0,84,876.84,6.37,6.37,0,0,1,81.15,878.93Z"/><path class="cls-7" d="M240.44,878.9v0l0,0h0Z"/><path class="cls-7" d="M230,870v20h20V870H230Zm6.82,14.89h-2.34v-7h2.34v7Zm-1.17-8h0A1.22,1.22,0,1,1,237,875.7a1.21,1.21,0,0,1-1.33,1.22Zm9.58,8H242.9v-3.76c0-.94-0.34-1.59-1.18-1.59a1.28,1.28,0,0,0-1.2.85,1.58,1.58,0,0,0-.08.57v3.92h-2.33s0-6.36,0-7h2.33v1a2.32,2.32,0,0,1,2.11-1.16c1.54,0,2.69,1,2.69,3.16v4Z"/><path class="cls-7" d="M550,870v20h20V870H550Zm6.68,13.1a3,3,0,1,1,3-3A3,3,0,0,1,556.68,883.11Zm6.55,0a3,3,0,1,1,3-3A3,3,0,0,1,563.23,883.11Z"/><path class="cls-7" d="M550,710v20h20V710H550Zm12.49,10.18h-1.72v6.25h-2.59v-6.25h-1.29V718h1.29v-1.29c0-1.76.73-2.8,2.8-2.8h1.72v2.15h-1.08c-0.81,0-.86.3-0.86,0.86V718h2Z"/><path class="cls-7" d="M870,710v20h20V710H870Zm10.61,13.66a2.25,2.25,0,0,1-1.92-1s-0.46,1.81-.55,2.16a8.5,8.5,0,0,1-1.42,2.57,0.11,0.11,0,0,1-.19,0,8.92,8.92,0,0,1,0-3c0.15-.64,1-4.28,1-4.28a3,3,0,0,1-.25-1.24,1.8,1.8,0,0,1,1.52-2,1.05,1.05,0,0,1,1.06,1.18,17,17,0,0,1-.7,2.79,1.21,1.21,0,0,0,1.24,1.51c1.49,0,2.49-1.91,2.49-4.17a2.94,2.94,0,0,0-3.27-3,3.72,3.72,0,0,0-3.87,3.76,2.28,2.28,0,0,0,.52,1.54,0.38,0.38,0,0,1,.11.44l-0.16.63a0.27,0.27,0,0,1-.39.2,3,3,0,0,1-1.61-3c0-2.23,1.88-4.91,5.62-4.91a4.69,4.69,0,0,1,5,4.5C884.85,721.37,883.14,723.67,880.61,723.67Z"/><path class="cls-7" d="M710,710v20h20V710H710Zm16.09,7.07c0,0.13,0,.27,0,0.41A8.93,8.93,0,0,1,712.35,725a6.74,6.74,0,0,0,.75,0,6.29,6.29,0,0,0,3.9-1.34,3.15,3.15,0,0,1-2.93-2.18,3.26,3.26,0,0,0,.59.06,3.14,3.14,0,0,0,.83-0.11A3.14,3.14,0,0,1,713,718.4a0.28,0.28,0,0,1,0,0,3.1,3.1,0,0,0,1.42.39,3.14,3.14,0,0,1-1-4.19,8.93,8.93,0,0,0,6.47,3.28,3.21,3.21,0,0,1-.08-0.72,3.14,3.14,0,0,1,5.43-2.15,6.28,6.28,0,0,0,2-.76,3.14,3.14,0,0,1-1.38,1.74,6.29,6.29,0,0,0,1.8-.49A6.43,6.43,0,0,1,726.09,717.08Z"/><path class="cls-7" d="M870,870v20h20V870H870Zm13,3a1,1,0,0,1,1-1h2a1,1,0,0,1,1,1v2a1,1,0,0,1-1,1h-2a1,1,0,0,1-1-1v-2Zm-3,5a3,3,0,1,1-3,3A3,3,0,0,1,880,878Zm8,8a2,2,0,0,1-2,2H874a2,2,0,0,1-2-2v-7h2.35a6,6,0,1,0,11.3,0H888v7Z"/><path class="cls-7" d="M719.67,877.66a0.27,0.27,0,0,0,.2-0.08,0.28,0.28,0,0,0,.08-0.22v-1.86a0.23,0.23,0,0,0-.08-0.18,0.3,0.3,0,0,0-.2-0.07,0.28,0.28,0,0,0-.19.07,0.24,0.24,0,0,0-.07.18v1.86a0.31,0.31,0,0,0,.07.22A0.24,0.24,0,0,0,719.67,877.66Z"/><path class="cls-7" d="M710,870v20h20V870H710Zm11.12,4.73h0.63v2.61a0.31,0.31,0,0,0,0,.18,0.16,0.16,0,0,0,.13.05,0.37,0.37,0,0,0,.18-0.07,0.9,0.9,0,0,0,.2-0.18v-2.59h0.63v3.41h-0.63v-0.38a1.38,1.38,0,0,1-.36.32,0.74,0.74,0,0,1-.37.11,0.38,0.38,0,0,1-.33-0.15,0.76,0.76,0,0,1-.11-0.46v-2.85Zm-1.43-.09a0.88,0.88,0,0,1,.64.25,0.86,0.86,0,0,1,.25.64v1.76a0.94,0.94,0,0,1-.25.69,0.92,0.92,0,0,1-.68.25A0.88,0.88,0,0,1,719,878a1,1,0,0,1-.25-0.69v-1.77a0.81,0.81,0,0,1,.26-0.63A1,1,0,0,1,719.7,874.67Zm-2.59-1.13,0.46,1.85h0l0.44-1.85h0.73l-0.84,2.7v1.92h-0.71v-1.83l-0.85-2.79h0.72Zm8.07,11a1.5,1.5,0,0,1-1.51,1.49q-1.79.08-3.65,0.07c-1.24,0-2.46,0-3.65-.07a1.5,1.5,0,0,1-1.51-1.49q-0.08-1-.07-2c0-.65,0-1.3.07-2a1.5,1.5,0,0,1,1.51-1.49q1.7-.07,3.46-0.07h0.37q1.77,0,3.46.07a1.5,1.5,0,0,1,1.51,1.49c0,0.65.07,1.31,0.07,2S725.23,883.86,725.18,884.51Z"/><path class="cls-7" d="M717.8,880.18H715.6v0.67h0.74v4h0.71v-4h0.74v-0.67ZM719,884a0.94,0.94,0,0,1-.19.18,0.34,0.34,0,0,1-.18.07,0.15,0.15,0,0,1-.13-0.05,0.31,0.31,0,0,1,0-.18v-2.61h-0.63v2.85a0.77,0.77,0,0,0,.11.46,0.38,0.38,0,0,0,.33.15,0.74,0.74,0,0,0,.37-0.11,1.42,1.42,0,0,0,.36-0.32v0.38h0.63v-3.41H719V884Zm2.46-2.63a0.6,0.6,0,0,0-.29.08,1,1,0,0,0-.27.24v-1.49h-0.64v4.62h0.64v-0.26a0.93,0.93,0,0,0,.27.23,0.72,0.72,0,0,0,.33.07,0.52,0.52,0,0,0,.43-0.19,0.91,0.91,0,0,0,.15-0.56V882.2a1.08,1.08,0,0,0-.16-0.64,0.53,0.53,0,0,0-.46-0.22m0,2.65a0.39,0.39,0,0,1-.05.24,0.2,0.2,0,0,1-.17.07,0.33,0.33,0,0,1-.15,0,0.6,0.6,0,0,1-.15-0.12V882a0.57,0.57,0,0,1,.13-0.1,0.29,0.29,0,0,1,.13,0,0.23,0.23,0,0,1,.2.09,0.44,0.44,0,0,1,.07.26V884Zm3-.83v-0.87a1.09,1.09,0,0,0-.23-0.74,0.86,0.86,0,0,0-.67-0.26,0.93,0.93,0,0,0-.7.28,1,1,0,0,0-.27.72v1.53a1.14,1.14,0,0,0,.24.77,0.84,0.84,0,0,0,.67.28,0.91,0.91,0,0,0,.71-0.27,1.15,1.15,0,0,0,.24-0.79v-0.26h-0.65v0.24a0.79,0.79,0,0,1-.06.39,0.26,0.26,0,0,1-.22.09,0.23,0.23,0,0,1-.21-0.1,0.77,0.77,0,0,1-.06-0.37v-0.64h1.21Zm-1.21-.87a0.53,0.53,0,0,1,.07-0.31,0.25,0.25,0,0,1,.22-0.09,0.23,0.23,0,0,1,.21.09,0.52,0.52,0,0,1,.07.31v0.35h-0.56V882.3Z"/><path class="cls-7" d="M396.51,879.76a3.17,3.17,0,0,0,.76-1.87c0-2.1-1.22-5.36-3.62-5.36a2.7,2.7,0,0,0-2,1,3.3,3.3,0,0,0-.57,2.15c0,1.95,1,4.84,3.52,4.84A2.52,2.52,0,0,0,396.51,879.76Z"/><path class="cls-7" d="M393.74,882.73a2.64,2.64,0,0,1,.29-1.14c-0.32,0-.64.06-0.93,0.06a4.94,4.94,0,0,1-3.11-1.09v5c1.32-1,3.53-.8,4.61-0.87A3.06,3.06,0,0,1,393.74,882.73Z"/><path class="cls-7" d="M395.59,885.56a4.65,4.65,0,0,0-.67,0,11.65,11.65,0,0,0-3,.46,4.3,4.3,0,0,0-1.88,1.23V890h9.29a1.68,1.68,0,0,0,.11-0.58C399.38,887.94,397.8,887.13,395.59,885.56Z"/><path class="cls-7" d="M410,876.78H406.2v3.71h-1.58v-3.71h-3.69v-1.56h3.69v-3.66h1.58v3.66H410V870H390v3.3l0.14-.13a7.63,7.63,0,0,1,5-1.62h6.13l-1.63,1.31h-1.78a4.67,4.67,0,0,1,1.78,3.69c0,2.15-1.13,3.18-2.35,4.14a2,2,0,0,0-.81,1.43,1.6,1.6,0,0,0,.75,1.25l1,0.81c1.28,1.08,2.94,2.33,2.94,4.34A4.17,4.17,0,0,1,401,890h9V876.78h0Z"/><path class="cls-5" d="M404.65,238.33a6.33,6.33,0,1,0-6.33,6.33A6.33,6.33,0,0,0,404.65,238.33Zm-6.33,4.38a4.38,4.38,0,1,1,4.38-4.38A4.38,4.38,0,0,1,398.32,242.71Zm9.25,2.92-3.89-3.89v1.95h-1.95l3.89,3.89A1.38,1.38,0,1,0,407.57,245.63Z"/><path class="cls-8" d="M245.31,1039.51c-1-2-6.16-2-6.16-2v-3l-5.13,5,5.13,5v-3s3.08,0,4.11,1a3.61,3.61,0,0,1,1,3A4.62,4.62,0,0,0,245.31,1039.51Z"/><path class="cls-3" d="M560,1020.66A14.33,14.33,0,0,0,545.69,1035c0,9.64,11.12,21.83,14.31,24.38,3.19-2.55,14.31-14.74,14.31-24.38A14.33,14.33,0,0,0,560,1020.66Z"/><circle class="cls-5" cx="560" cy="1034.97" r="5.41"/><path class="cls-9" d="M711.5,1047.51h17v-3h-17v3Zm0-6h17v-3h-17v3Zm0-9v3h17v-3h-17Z"/></svg>